<?xml version="1.0" encoding="UTF-8"?>
<svg id="Layer_1" data-name="Layer 1" xmlns="http://www.w3.org/2000/svg" viewBox="0 0 99.49 121.09">
  <defs>
    <style>
      .cls-1 {
        fill: #603a17;
      }

      .cls-2 {
        fill: #eac19c;
      }

      .cls-3 {
        fill: none;
        stroke: #5a80ae;
        stroke-miterlimit: 10;
        stroke-width: 2px;
      }

      .cls-4 {
        fill: #cfecf3;
      }

      .cls-5 {
        fill: #ebc19c;
      }
    </style>
  </defs>
  <g>
    <path class="cls-2" d="M90.44,64.25c0,28.41-17.95,51.46-40.09,51.46S10.25,92.66,10.25,64.25,28.2,12.78,50.35,12.78s40.09,23.04,40.09,51.47"/>
    <path class="cls-4" d="M43.82,61.69c0,6.58-5.33,11.91-11.91,11.91s-11.91-5.33-11.91-11.91,5.33-11.91,11.91-11.91,11.91,5.33,11.91,11.91"/>
    <path class="cls-4" d="M78.27,61.69c0,6.58-5.33,11.91-11.91,11.91s-11.91-5.33-11.91-11.91,5.33-11.91,11.91-11.91,11.91,5.33,11.91,11.91"/>
    <path class="cls-3" d="M54.47,61.87s1.03-4.79-5.08-4.79-5.61,4.79-5.61,4.79"/>
    <path class="cls-1" d="M10.98,50.38s-3.27-13.61-1.32-19.36c1.73-5.08,16.72-8.82,16.72-8.82,0,0,11.25-18.85,33.2-19.18,21.95-.32,25.88,11.19,28.24,21.91,2.36,10.72,1.88,28.06,1.88,28.06,0,0-17.45-28.02-31.36-26.68-6.23,1.87-5.74,2.01-5.74,2.01,0,0-4.02-2.38-6.43-2.38-2.42,0-24.79,10.81-35.19,24.43Z"/>
    <path class="cls-3" d="M43.82,60.64c0,6.58-5.33,11.91-11.91,11.91s-11.91-5.33-11.91-11.91,5.33-11.91,11.91-11.91,11.91,5.33,11.91,11.91Z"/>
    <path class="cls-3" d="M78.27,60.64c0,6.58-5.33,11.91-11.91,11.91s-11.91-5.33-11.91-11.91,5.33-11.91,11.91-11.91,11.91,5.33,11.91,11.91Z"/>
  </g>
  <g>
    <path class="cls-5" d="M4.16,72.73c0,1.5,1.22,2.72,2.72,2.72s2.72-1.22,2.72-2.72v-13.58c0-1.5-1.22-2.72-2.72-2.72s-2.72,1.22-2.72,2.72v13.58Z"/>
    <path class="cls-5" d="M91.17,72.73c0,1.5,1.22,2.72,2.72,2.72s2.72-1.22,2.72-2.72v-13.58c0-1.5-1.22-2.72-2.72-2.72s-2.72,1.22-2.72,2.72v13.58Z"/>
    <path class="cls-1" d="M34.47,94.23l1.86,2.68s4.73-4.76,13.16-4.76,13.14,4.76,13.14,4.76l2.72-2.68s-5.46-7.91-11.86-8.55c-.89-.09-2.67,1.02-3.6,1.02-1.19,0-2.73-1.27-3.8-1.11-8.23,1.23-11.62,8.64-11.62,8.64"/>
    <path class="cls-1" d="M36.29,110.53s6.4,1.28,14,1.28,14.39-2.34,14.39-2.34v2s-5.2,6.23-14.38,6.23-15.44-5.66-15.44-5.66l1.43-1.53Z"/>
  </g>
</svg>