<?xml version="1.0" encoding="UTF-8"?>
<svg id="Layer_1" data-name="Layer 1" xmlns="http://www.w3.org/2000/svg" viewBox="0 0 66.38 60.77">
  <defs>
    <style>
      .cls-1 {
        fill: #b7892d;
      }
    </style>
  </defs>
  <path class="cls-1" d="M47.75,15.4h1.31l5.57-7.76c-2.04-1.74-4.68-2.8-7.58-2.8h-7.21l7.91,10.56Z"/>
  <path class="cls-1" d="M25.01,21.9c0-1.05-.66-2.49-3.12-2.49H7.65v5.18h14.24c2.43,0,3.12-1.57,3.12-2.69Z"/>
  <path class="cls-1" d="M51.82,21.54v8.63h-6.56v-8.33l-13.04-16.99h-4.66c3,1.18,4.28,3.4,4.28,6.26,0,2.53-.92,4.46-3.15,5.64,2.23,1.18,3.15,3.15,3.15,5.74,0,4.4-2.82,7.68-10.14,7.68H7.65v14.07c0,6.45,5.23,11.68,11.68,11.68h2.81l.23-5.22c2.72,1.31,7.68,2.07,13.29,2.07s7.87-1.02,7.87-2.23c0-4.5-21.95-.07-21.95-10.93,0-5.54,6.07-8.53,14.4-8.53,5.61,0,11.22.85,13.29,2.03l-1.25,5.58c-2.2-1.31-7.78-2-12.27-2-5.54,0-7.68.79-7.68,2.17,0,4.82,21.98.2,21.98,10.7,0,2.45-1.28,4.73-3.9,6.37h.89c6.45,0,11.68-5.23,11.68-11.68v-27.72c0-1.21-.18-2.38-.52-3.47l-6.39,8.49Z"/>
  <path class="cls-1" d="M21.89,9.5h-11.88c-1.13,1.49-1.9,3.26-2.2,5.18h14.08c2.4,0,3.12-1.38,3.12-2.46,0-1.02-.72-2.72-3.12-2.72Z"/>
</svg>