<svg viewBox="73 73 54 54" xmlns="http://www.w3.org/2000/svg">
  <path fill-rule="evenodd" fill="#E8382A"
    d="M 125.144531 99.621094 C 125.144531 85.476562 113.683594 74.015625 99.78125 74.015625 C 85.636719 74.015625 74.171875 85.476562 74.171875 99.621094 C 74.171875 113.765625 85.636719 125.230469 99.78125 125.230469 C 113.683594 125.230469 125.144531 113.765625 125.144531 99.621094 M 113.925781 113.035156 C 113.925781 113.035156 108.074219 111.085938 99.78125 111.085938 C 91.246094 111.085938 85.390625 113.035156 85.390625 113.035156 L 85.390625 86.453125 L 85.878906 86.453125 C 85.878906 86.453125 88.078125 109.867188 99.78125 109.867188 C 111.242188 109.867188 113.441406 86.453125 113.441406 86.453125 L 113.925781 86.453125 Z M 113.925781 113.035156"/>
</svg>