<?xml version="1.0" encoding="UTF-8"?>
<svg width="100%" height="100%" xmlns="http://www.w3.org/2000/svg" xmlns:xlink="http://www.w3.org/1999/xlink" viewBox="107 555 388 491" version="1.2">
<defs>
<filter id="alpha" filterUnits="objectBoundingBox" x="0%" y="0%" width="100%" height="100%">
  <feColorMatrix type="matrix" in="SourceGraphic" values="0 0 0 0 1 0 0 0 0 1 0 0 0 0 1 0 0 0 1 0"/>
</filter>
<mask id="mask0">
  <g filter="url(#alpha)">
<rect x="0" y="0" width="1500" height="1100" style="fill:rgb(0%,0%,0%);fill-opacity:0.5;stroke:none;"/>
  </g>
</mask>
<clipPath id="clip2">
  <path d="M 0.851562 0.191406 L 388.011719 0.191406 L 388.011719 22.84375 L 0.851562 22.84375 Z M 0.851562 0.191406 "/>
</clipPath>
<clipPath id="clip1">
  <rect x="0" y="0" width="389" height="23"/>
</clipPath>
<g id="surface5" clip-path="url(#clip1)">
<g clip-path="url(#clip2)" clip-rule="nonzero">
<path style=" stroke:none;fill-rule:nonzero;fill:rgb(54.510498%,77.255249%,24.705505%);fill-opacity:1;" d="M 388.007812 22.84375 L 0.847656 22.84375 L 0.847656 0.191406 L 376.519531 0.191406 C 385.714844 0.191406 388.007812 5.457031 388.007812 11.707031 Z M 388.007812 22.84375 "/>
</g>
</g>
<mask id="mask1">
  <g filter="url(#alpha)">
<rect x="0" y="0" width="1500" height="1100" style="fill:rgb(0%,0%,0%);fill-opacity:0.5;stroke:none;"/>
  </g>
</mask>
<clipPath id="clip4">
  <path d="M 0.851562 0.046875 L 388.011719 0.046875 L 388.011719 22.699219 L 0.851562 22.699219 Z M 0.851562 0.046875 "/>
</clipPath>
<clipPath id="clip3">
  <rect x="0" y="0" width="389" height="23"/>
</clipPath>
<g id="surface8" clip-path="url(#clip3)">
<g clip-path="url(#clip4)" clip-rule="nonzero">
<path style=" stroke:none;fill-rule:nonzero;fill:rgb(54.510498%,77.255249%,24.705505%);fill-opacity:1;" d="M 388.007812 22.699219 L 0.847656 22.699219 L 0.847656 0.046875 L 376.519531 0.046875 C 385.714844 0.046875 388.007812 5.3125 388.007812 11.5625 Z M 388.007812 22.699219 "/>
</g>
</g>
<mask id="mask2">
  <g filter="url(#alpha)">
<rect x="0" y="0" width="1500" height="1100" style="fill:rgb(0%,0%,0%);fill-opacity:0.5;stroke:none;"/>
  </g>
</mask>
<clipPath id="clip6">
  <path d="M 0.851562 0.246094 L 388.011719 0.246094 L 388.011719 22.894531 L 0.851562 22.894531 Z M 0.851562 0.246094 "/>
</clipPath>
<clipPath id="clip5">
  <rect x="0" y="0" width="389" height="23"/>
</clipPath>
<g id="surface11" clip-path="url(#clip5)">
<g clip-path="url(#clip6)" clip-rule="nonzero">
<path style=" stroke:none;fill-rule:nonzero;fill:rgb(54.510498%,77.255249%,24.705505%);fill-opacity:1;" d="M 388.007812 22.898438 L 0.847656 22.898438 L 0.847656 0.246094 L 376.519531 0.246094 C 385.714844 0.246094 388.007812 5.511719 388.007812 11.761719 Z M 388.007812 22.898438 "/>
</g>
</g>
<mask id="mask3">
  <g filter="url(#alpha)">
<rect x="0" y="0" width="1500" height="1100" style="fill:rgb(0%,0%,0%);fill-opacity:0.5;stroke:none;"/>
  </g>
</mask>
<clipPath id="clip8">
  <path d="M 0.851562 0.242188 L 388.011719 0.242188 L 388.011719 22.894531 L 0.851562 22.894531 Z M 0.851562 0.242188 "/>
</clipPath>
<clipPath id="clip7">
  <rect x="0" y="0" width="389" height="23"/>
</clipPath>
<g id="surface14" clip-path="url(#clip7)">
<g clip-path="url(#clip8)" clip-rule="nonzero">
<path style=" stroke:none;fill-rule:nonzero;fill:rgb(54.510498%,77.255249%,24.705505%);fill-opacity:1;" d="M 388.007812 22.894531 L 0.847656 22.894531 L 0.847656 0.242188 L 376.519531 0.242188 C 385.714844 0.242188 388.007812 5.507812 388.007812 11.757812 Z M 388.007812 22.894531 "/>
</g>
</g>
<mask id="mask4">
  <g filter="url(#alpha)">
<rect x="0" y="0" width="1500" height="1100" style="fill:rgb(0%,0%,0%);fill-opacity:0.5;stroke:none;"/>
  </g>
</mask>
<clipPath id="clip10">
  <path d="M 0.851562 0.808594 L 388.011719 0.808594 L 388.011719 23.460938 L 0.851562 23.460938 Z M 0.851562 0.808594 "/>
</clipPath>
<clipPath id="clip9">
  <rect x="0" y="0" width="389" height="24"/>
</clipPath>
<g id="surface17" clip-path="url(#clip9)">
<g clip-path="url(#clip10)" clip-rule="nonzero">
<path style=" stroke:none;fill-rule:nonzero;fill:rgb(54.510498%,77.255249%,24.705505%);fill-opacity:1;" d="M 388.007812 23.460938 L 0.847656 23.460938 L 0.847656 0.8125 L 376.519531 0.8125 C 385.714844 0.8125 388.007812 6.078125 388.007812 12.324219 Z M 388.007812 23.460938 "/>
</g>
</g>
<mask id="mask5">
  <g filter="url(#alpha)">
<rect x="0" y="0" width="1500" height="1100" style="fill:rgb(0%,0%,0%);fill-opacity:0.5;stroke:none;"/>
  </g>
</mask>
<clipPath id="clip12">
  <path d="M 0.851562 0.171875 L 388.011719 0.171875 L 388.011719 22.824219 L 0.851562 22.824219 Z M 0.851562 0.171875 "/>
</clipPath>
<clipPath id="clip11">
  <rect x="0" y="0" width="389" height="23"/>
</clipPath>
<g id="surface20" clip-path="url(#clip11)">
<g clip-path="url(#clip12)" clip-rule="nonzero">
<path style=" stroke:none;fill-rule:nonzero;fill:rgb(54.510498%,77.255249%,24.705505%);fill-opacity:1;" d="M 388.007812 22.824219 L 0.847656 22.824219 L 0.847656 0.171875 L 376.519531 0.171875 C 385.714844 0.171875 388.007812 5.4375 388.007812 11.6875 Z M 388.007812 22.824219 "/>
</g>
</g>
<mask id="mask6">
  <g filter="url(#alpha)">
<rect x="0" y="0" width="1500" height="1100" style="fill:rgb(0%,0%,0%);fill-opacity:0.100006;stroke:none;"/>
  </g>
</mask>
<clipPath id="clip14">
  <path d="M 0.5625 0.371094 L 1397.441406 0.371094 L 1397.441406 97.179688 L 0.5625 97.179688 Z M 0.5625 0.371094 "/>
</clipPath>
<clipPath id="clip13">
  <rect x="0" y="0" width="1398" height="98"/>
</clipPath>
<g id="surface23" clip-path="url(#clip13)">
<g clip-path="url(#clip14)" clip-rule="nonzero">
<path style=" stroke:none;fill-rule:nonzero;fill:rgb(77.6474%,61.177063%,42.744446%);fill-opacity:1;" d="M 1397.4375 97.179688 L 0.5625 97.179688 L 0.5625 0.371094 L 1397.4375 0.371094 Z M 1397.4375 97.179688 "/>
</g>
</g>
<mask id="mask7">
  <g filter="url(#alpha)">
<rect x="0" y="0" width="1500" height="1100" style="fill:rgb(0%,0%,0%);fill-opacity:0.5;stroke:none;"/>
  </g>
</mask>
<clipPath id="clip16">
  <path d="M 0.320312 0.800781 L 44.589844 0.800781 L 44.589844 45.066406 L 0.320312 45.066406 Z M 0.320312 0.800781 "/>
</clipPath>
<clipPath id="clip15">
  <rect x="0" y="0" width="45" height="46"/>
</clipPath>
<g id="surface26" clip-path="url(#clip15)">
<g clip-path="url(#clip16)" clip-rule="nonzero">
<path style=" stroke:none;fill-rule:nonzero;fill:rgb(77.6474%,61.177063%,42.744446%);fill-opacity:1;" d="M 36.128906 0.800781 C 40.144531 5.285156 42.589844 11.207031 42.589844 17.703125 C 42.589844 31.710938 31.234375 43.066406 17.226562 43.066406 C 10.730469 43.066406 4.808594 40.621094 0.320312 36.609375 C 4.964844 41.796875 11.710938 45.066406 19.226562 45.066406 C 33.234375 45.066406 44.589844 33.710938 44.589844 19.703125 C 44.589844 12.191406 41.320312 5.445312 36.128906 0.800781 "/>
</g>
</g>
<mask id="mask8">
  <g filter="url(#alpha)">
<rect x="0" y="0" width="1500" height="1100" style="fill:rgb(0%,0%,0%);fill-opacity:0.5;stroke:none;"/>
  </g>
</mask>
<clipPath id="clip18">
  <path d="M 0.800781 0.800781 L 45.070312 0.800781 L 45.070312 45.066406 L 0.800781 45.066406 Z M 0.800781 0.800781 "/>
</clipPath>
<clipPath id="clip17">
  <rect x="0" y="0" width="46" height="46"/>
</clipPath>
<g id="surface29" clip-path="url(#clip17)">
<g clip-path="url(#clip18)" clip-rule="nonzero">
<path style=" stroke:none;fill-rule:nonzero;fill:rgb(77.6474%,61.177063%,42.744446%);fill-opacity:1;" d="M 36.613281 0.800781 C 40.628906 5.285156 43.070312 11.207031 43.070312 17.703125 C 43.070312 31.710938 31.714844 43.066406 17.707031 43.066406 C 11.214844 43.066406 5.292969 40.621094 0.804688 36.609375 C 5.449219 41.796875 12.195312 45.066406 19.707031 45.066406 C 33.714844 45.066406 45.070312 33.710938 45.070312 19.703125 C 45.070312 12.191406 41.800781 5.445312 36.613281 0.800781 "/>
</g>
</g>
<mask id="mask9">
  <g filter="url(#alpha)">
<rect x="0" y="0" width="1500" height="1100" style="fill:rgb(0%,0%,0%);fill-opacity:0.5;stroke:none;"/>
  </g>
</mask>
<clipPath id="clip20">
  <path d="M 0.0898438 0.800781 L 44.359375 0.800781 L 44.359375 45.066406 L 0.0898438 45.066406 Z M 0.0898438 0.800781 "/>
</clipPath>
<clipPath id="clip19">
  <rect x="0" y="0" width="45" height="46"/>
</clipPath>
<g id="surface32" clip-path="url(#clip19)">
<g clip-path="url(#clip20)" clip-rule="nonzero">
<path style=" stroke:none;fill-rule:nonzero;fill:rgb(77.6474%,61.177063%,42.744446%);fill-opacity:1;" d="M 35.902344 0.800781 C 39.917969 5.285156 42.363281 11.207031 42.363281 17.703125 C 42.363281 31.710938 31.003906 43.066406 16.996094 43.066406 C 10.503906 43.066406 4.582031 40.621094 0.09375 36.609375 C 4.738281 41.796875 11.484375 45.066406 18.996094 45.066406 C 33.003906 45.066406 44.363281 33.710938 44.363281 19.703125 C 44.363281 12.191406 41.089844 5.445312 35.902344 0.800781 "/>
</g>
</g>
<mask id="mask10">
  <g filter="url(#alpha)">
<rect x="0" y="0" width="1500" height="1100" style="fill:rgb(0%,0%,0%);fill-opacity:0.5;stroke:none;"/>
  </g>
</mask>
<clipPath id="clip22">
  <path d="M 0.738281 0.800781 L 45.011719 0.800781 L 45.011719 45.066406 L 0.738281 45.066406 Z M 0.738281 0.800781 "/>
</clipPath>
<clipPath id="clip21">
  <rect x="0" y="0" width="46" height="46"/>
</clipPath>
<g id="surface35" clip-path="url(#clip21)">
<g clip-path="url(#clip22)" clip-rule="nonzero">
<path style=" stroke:none;fill-rule:nonzero;fill:rgb(77.6474%,61.177063%,42.744446%);fill-opacity:1;" d="M 36.546875 0.800781 C 40.5625 5.285156 43.007812 11.207031 43.007812 17.703125 C 43.007812 31.710938 31.652344 43.066406 17.644531 43.066406 C 11.148438 43.066406 5.226562 40.621094 0.738281 36.609375 C 5.382812 41.796875 12.132812 45.066406 19.644531 45.066406 C 33.652344 45.066406 45.007812 33.710938 45.007812 19.703125 C 45.007812 12.191406 41.738281 5.445312 36.546875 0.800781 "/>
</g>
</g>
<mask id="mask11">
  <g filter="url(#alpha)">
<rect x="0" y="0" width="1500" height="1100" style="fill:rgb(0%,0%,0%);fill-opacity:0.5;stroke:none;"/>
  </g>
</mask>
<clipPath id="clip24">
  <path d="M 0.671875 0.808594 L 387.828125 0.808594 L 387.828125 23.460938 L 0.671875 23.460938 Z M 0.671875 0.808594 "/>
</clipPath>
<clipPath id="clip23">
  <rect x="0" y="0" width="388" height="24"/>
</clipPath>
<g id="surface38" clip-path="url(#clip23)">
<g clip-path="url(#clip24)" clip-rule="nonzero">
<path class="mat-metal mat-metal" style=" stroke:none;fill-rule:nonzero;fill:rgb(60.4%,63.5%,66.3%);fill-opacity:1;" d="M 387.832031 23.460938 L 0.671875 23.460938 L 0.671875 0.8125 L 376.339844 0.8125 C 385.539062 0.8125 387.832031 6.078125 387.832031 12.324219 Z M 387.832031 23.460938 "/>
</g>
</g>
<mask id="mask12">
  <g filter="url(#alpha)">
<rect x="0" y="0" width="1500" height="1100" style="fill:rgb(0%,0%,0%);fill-opacity:0.5;stroke:none;"/>
  </g>
</mask>
<clipPath id="clip26">
  <path d="M 0.671875 0.808594 L 387.828125 0.808594 L 387.828125 23.460938 L 0.671875 23.460938 Z M 0.671875 0.808594 "/>
</clipPath>
<clipPath id="clip25">
  <rect x="0" y="0" width="388" height="24"/>
</clipPath>
<g id="surface41" clip-path="url(#clip25)">
<g clip-path="url(#clip26)" clip-rule="nonzero">
<path class="mat-metal mat-metal" style=" stroke:none;fill-rule:nonzero;fill:rgb(60.4%,63.5%,66.3%);fill-opacity:1;" d="M 387.832031 23.460938 L 0.671875 23.460938 L 0.671875 0.8125 L 376.339844 0.8125 C 385.539062 0.8125 387.832031 6.078125 387.832031 12.324219 Z M 387.832031 23.460938 "/>
</g>
</g>
<mask id="mask13">
  <g filter="url(#alpha)">
<rect x="0" y="0" width="1500" height="1100" style="fill:rgb(0%,0%,0%);fill-opacity:0.5;stroke:none;"/>
  </g>
</mask>
<clipPath id="clip28">
  <path d="M 0.636719 0.0351562 L 387.796875 0.0351562 L 387.796875 22.6875 L 0.636719 22.6875 Z M 0.636719 0.0351562 "/>
</clipPath>
<clipPath id="clip27">
  <rect x="0" y="0" width="388" height="23"/>
</clipPath>
<g id="surface44" clip-path="url(#clip27)">
<g clip-path="url(#clip28)" clip-rule="nonzero">
<path class="mat-metal mat-metal" style=" stroke:none;fill-rule:nonzero;fill:rgb(60.4%,63.5%,66.3%);fill-opacity:1;" d="M 387.796875 22.6875 L 0.636719 22.6875 L 0.636719 0.0351562 L 376.308594 0.0351562 C 385.503906 0.0351562 387.796875 5.300781 387.796875 11.550781 Z M 387.796875 22.6875 "/>
</g>
</g>
<mask id="mask14">
  <g filter="url(#alpha)">
<rect x="0" y="0" width="1500" height="1100" style="fill:rgb(0%,0%,0%);fill-opacity:0.800003;stroke:none;"/>
  </g>
</mask>
<clipPath id="clip30">
  <path d="M 0.929688 0.808594 L 35.925781 0.808594 L 35.925781 32.222656 L 0.929688 32.222656 Z M 0.929688 0.808594 "/>
</clipPath>
<clipPath id="clip29">
  <rect x="0" y="0" width="36" height="33"/>
</clipPath>
<g id="surface47" clip-path="url(#clip29)">
<g clip-path="url(#clip30)" clip-rule="nonzero">
<path class="mat-fiberglass mat-fiberglass" style=" stroke:none;fill-rule:nonzero;fill:rgb(77.3%,74.9%,71.4%);fill-opacity:1;" d="M 14.074219 1.832031 L 14.074219 4.320312 L 14.039062 4.414062 C 13.511719 5.738281 10.742188 12.628906 7.980469 19.019531 L 15.632812 3.71875 L 34.902344 3.378906 L 34.902344 1.832031 Z M 3.5625 28.574219 C 3.039062 29.546875 2.613281 30.238281 2.316406 30.53125 C 2.007812 30.839844 1.949219 31.027344 1.957031 31.070312 C 2.035156 31.175781 2.640625 31.300781 3.257812 31.050781 C 3.703125 30.871094 3.898438 30.601562 3.839844 30.253906 Z M 2.503906 32.222656 C 1.917969 32.222656 1.367188 32.039062 1.09375 31.617188 C 0.902344 31.320312 0.707031 30.691406 1.59375 29.808594 C 3.207031 28.195312 10.375 10.8125 13.050781 4.125 L 13.050781 1.148438 L 13.5625 1.148438 L 13.5625 0.808594 L 35.925781 0.808594 L 35.925781 4.386719 L 16.273438 4.730469 L 4.535156 28.203125 L 4.851562 30.085938 C 4.992188 30.933594 4.527344 31.652344 3.605469 32.015625 C 3.265625 32.148438 2.875 32.222656 2.503906 32.222656 "/>
</g>
</g>
<mask id="mask15">
  <g filter="url(#alpha)">
<rect x="0" y="0" width="1500" height="1100" style="fill:rgb(0%,0%,0%);fill-opacity:0.800003;stroke:none;"/>
  </g>
</mask>
<clipPath id="clip32">
  <path d="M 0.0859375 0.808594 L 35.082031 0.808594 L 35.082031 32.222656 L 0.0859375 32.222656 Z M 0.0859375 0.808594 "/>
</clipPath>
<clipPath id="clip31">
  <rect x="0" y="0" width="36" height="33"/>
</clipPath>
<g id="surface50" clip-path="url(#clip31)">
<g clip-path="url(#clip32)" clip-rule="nonzero">
<path class="mat-fiberglass mat-fiberglass" style=" stroke:none;fill-rule:nonzero;fill:rgb(77.3%,74.9%,71.4%);fill-opacity:1;" d="M 1.109375 3.378906 L 20.378906 3.71875 L 28.03125 19.023438 C 25.269531 12.628906 22.503906 5.738281 21.972656 4.414062 L 21.9375 4.320312 L 21.9375 1.832031 L 1.109375 1.832031 Z M 32.453125 28.574219 L 32.171875 30.253906 C 32.113281 30.601562 32.308594 30.867188 32.753906 31.050781 C 33.367188 31.300781 33.980469 31.175781 34.058594 31.058594 C 34.058594 31.027344 34.003906 30.839844 33.695312 30.53125 C 33.402344 30.238281 32.972656 29.546875 32.453125 28.574219 M 33.507812 32.222656 C 33.136719 32.222656 32.75 32.148438 32.40625 32.015625 C 31.484375 31.652344 31.019531 30.933594 31.160156 30.085938 L 31.476562 28.199219 L 19.738281 4.730469 L 0.0859375 4.386719 L 0.0859375 0.808594 L 22.449219 0.808594 L 22.449219 1.148438 L 22.960938 1.148438 L 22.960938 4.125 C 25.636719 10.8125 32.804688 28.195312 34.417969 29.808594 C 35.304688 30.691406 35.113281 31.320312 34.917969 31.617188 C 34.644531 32.035156 34.09375 32.222656 33.507812 32.222656 "/>
</g>
</g>
<mask id="mask16">
  <g filter="url(#alpha)">
<rect x="0" y="0" width="1500" height="1100" style="fill:rgb(0%,0%,0%);fill-opacity:0.5;stroke:none;"/>
  </g>
</mask>
<clipPath id="clip34">
  <path d="M 0.78125 0.90625 L 200.511719 0.90625 L 200.511719 115.636719 L 0.78125 115.636719 Z M 0.78125 0.90625 "/>
</clipPath>
<clipPath id="clip33">
  <rect x="0" y="0" width="201" height="116"/>
</clipPath>
<g id="surface53" clip-path="url(#clip33)">
<g clip-path="url(#clip34)" clip-rule="nonzero">
<path class="mat-metal mat-metal" style=" stroke:none;fill-rule:nonzero;fill:rgb(60.4%,63.5%,66.3%);fill-opacity:1;" d="M 195.246094 86.488281 C 195.246094 86.488281 186.371094 98.777344 169.527344 102.421875 C 152.6875 106.0625 73.023438 111.523438 54.359375 110.386719 C 35.695312 109.25 5.199219 104.921875 1.328125 101.738281 C -2.539062 98.550781 14.285156 109.25 48.320312 112.890625 C 82.355469 116.53125 116.042969 116.078125 140.167969 114.253906 C 164.292969 112.433594 169.753906 105.835938 178.632812 108.109375 C 187.507812 110.386719 184.007812 112.257812 190.011719 109.929688 C 196.015625 107.601562 201.808594 97.050781 200.253906 81.707031 C 198.699219 66.363281 182.046875 0.910156 182.046875 0.910156 C 182.046875 0.910156 178.175781 2.957031 179.316406 11.832031 C 180.453125 20.710938 188.648438 63.726562 192.289062 71.464844 C 195.929688 79.203125 198.433594 80.113281 197.523438 84.210938 C 196.613281 88.308594 195.246094 86.488281 195.246094 86.488281 "/>
</g>
</g>
<mask id="mask17">
  <g filter="url(#alpha)">
<rect x="0" y="0" width="1500" height="1100" style="fill:rgb(0%,0%,0%);fill-opacity:0.5;stroke:none;"/>
  </g>
</mask>
<clipPath id="clip36">
  <path d="M 0.226562 0.320312 L 100.46875 0.320312 L 100.46875 98.148438 L 0.226562 98.148438 Z M 0.226562 0.320312 "/>
</clipPath>
<clipPath id="clip35">
  <rect x="0" y="0" width="101" height="99"/>
</clipPath>
<g id="surface56" clip-path="url(#clip35)">
<g clip-path="url(#clip36)" clip-rule="nonzero">
<path class="mat-metal mat-metal" style=" stroke:none;fill-rule:nonzero;fill:rgb(60.4%,63.5%,66.3%);fill-opacity:1;" d="M 1.589844 2.15625 C 1.589844 2.15625 37.78125 3.75 50.070312 11.257812 C 62.363281 18.769531 74.652344 40.621094 74.652344 40.621094 C 74.652344 40.621094 79.886719 52.683594 72.148438 67.023438 C 64.410156 81.363281 61.679688 88.1875 73.742188 94.105469 C 85.804688 100.023438 96.957031 99.34375 99.914062 92.742188 C 102.875 86.140625 93.316406 31.289062 87.171875 24.6875 C 81.023438 18.085938 72.832031 10.804688 60.996094 7.84375 C 49.160156 4.886719 0.679688 -3.308594 0.226562 2.15625 "/>
</g>
</g>
<mask id="mask18">
  <g filter="url(#alpha)">
<rect x="0" y="0" width="1500" height="1100" style="fill:rgb(0%,0%,0%);fill-opacity:0.5;stroke:none;"/>
  </g>
</mask>
<clipPath id="clip38">
  <path d="M 0.773438 0.371094 L 93.242188 0.371094 L 93.242188 10.320312 L 0.773438 10.320312 Z M 0.773438 0.371094 "/>
</clipPath>
<clipPath id="clip37">
  <rect x="0" y="0" width="94" height="11"/>
</clipPath>
<g id="surface59" clip-path="url(#clip37)">
<g clip-path="url(#clip38)" clip-rule="nonzero">
<path class="mat-metal mat-metal" style=" stroke:none;fill-rule:nonzero;fill:rgb(60.4%,63.5%,66.3%);fill-opacity:1;" d="M 2.316406 7.902344 C 2.316406 7.902344 36 11.769531 56.257812 9.722656 C 76.511719 7.671875 89.488281 5.851562 92.671875 3.578125 C 95.859375 1.300781 85.84375 -0.746094 58.761719 1.074219 C 31.675781 2.894531 19.15625 -1.660156 8.914062 2.4375 C -1.328125 6.535156 0.207031 7.671875 2.316406 7.902344 "/>
</g>
</g>
<mask id="mask19">
  <g filter="url(#alpha)">
<rect x="0" y="0" width="1500" height="1100" style="fill:rgb(0%,0%,0%);fill-opacity:0.5;stroke:none;"/>
  </g>
</mask>
<clipPath id="clip40">
  <path d="M 0.484375 0.238281 L 204.742188 0.238281 L 204.742188 141.859375 L 0.484375 141.859375 Z M 0.484375 0.238281 "/>
</clipPath>
<clipPath id="clip39">
  <rect x="0" y="0" width="205" height="142"/>
</clipPath>
<g id="surface62" clip-path="url(#clip39)">
<g clip-path="url(#clip40)" clip-rule="nonzero">
<path class="mat-metal mat-metal" style=" stroke:none;fill-rule:nonzero;fill:rgb(60.4%,63.5%,66.3%);fill-opacity:1;" d="M 32.550781 7.460938 C 32.550781 7.460938 63.164062 8.941406 74.542969 11.445312 C 85.925781 13.949219 90.476562 17.136719 95.253906 23.734375 C 100.035156 30.335938 108 59.695312 110.503906 68.800781 C 113.007812 77.90625 120.0625 101.804688 130.535156 112.957031 C 141.003906 124.109375 148.699219 130.355469 163.054688 135.832031 C 177.410156 141.308594 192.214844 138.589844 202.683594 141.25 C 213.15625 143.910156 180.914062 137.144531 167.632812 134.578125 C 154.355469 132.011719 143.507812 124.792969 137.132812 117.507812 C 130.761719 110.226562 118.472656 83.824219 114.375 71.304688 C 110.277344 58.785156 104.585938 36.027344 101.628906 29.652344 C 98.667969 23.28125 91.613281 16.226562 86.152344 13.722656 C 80.6875 11.21875 64.53125 8.714844 54.285156 7.460938 C 44.042969 6.210938 4.441406 4.390625 0.800781 0.976562 C -2.839844 -2.4375 26.050781 7.101562 32.550781 7.460938 "/>
</g>
</g>
<mask id="mask20">
  <g filter="url(#alpha)">
<rect x="0" y="0" width="1500" height="1100" style="fill:rgb(0%,0%,0%);fill-opacity:0.5;stroke:none;"/>
  </g>
</mask>
<clipPath id="clip42">
  <path d="M 0.09375 0.660156 L 50.820312 0.660156 L 50.820312 95.449219 L 0.09375 95.449219 Z M 0.09375 0.660156 "/>
</clipPath>
<clipPath id="clip41">
  <rect x="0" y="0" width="51" height="96"/>
</clipPath>
<g id="surface65" clip-path="url(#clip41)">
<g clip-path="url(#clip42)" clip-rule="nonzero">
<path class="mat-metal mat-metal" style=" stroke:none;fill-rule:nonzero;fill:rgb(60.4%,63.5%,66.3%);fill-opacity:1;" d="M 9.175781 5.527344 C 9.175781 5.527344 15.320312 22.824219 14.410156 35.796875 C 13.5 48.773438 9.175781 66.070312 7.808594 69.484375 C 6.441406 72.898438 -4.027344 86.554688 1.890625 90.878906 C 7.808594 95.203125 24.878906 97.023438 29.429688 93.839844 C 33.984375 90.652344 35.574219 78.816406 32.390625 72.671875 C 29.203125 66.527344 38.761719 59.925781 38.308594 49.226562 C 37.851562 38.53125 32.160156 45.132812 39.902344 31.246094 C 47.640625 17.363281 44.679688 9.167969 49.914062 5.527344 C 55.148438 1.886719 36.257812 -0.160156 29.203125 0.976562 C 22.148438 2.113281 15.09375 4.390625 9.175781 5.527344 "/>
</g>
</g>
<mask id="mask21">
  <g filter="url(#alpha)">
<rect x="0" y="0" width="1500" height="1100" style="fill:rgb(0%,0%,0%);fill-opacity:0.5;stroke:none;"/>
  </g>
</mask>
<clipPath id="clip44">
  <path d="M 0.808594 0.578125 L 45.417969 0.578125 L 45.417969 108.300781 L 0.808594 108.300781 Z M 0.808594 0.578125 "/>
</clipPath>
<clipPath id="clip43">
  <rect x="0" y="0" width="46" height="109"/>
</clipPath>
<g id="surface68" clip-path="url(#clip43)">
<g clip-path="url(#clip44)" clip-rule="nonzero">
<path class="mat-metal mat-metal" style=" stroke:none;fill-rule:nonzero;fill:rgb(60.4%,63.5%,66.3%);fill-opacity:1;" d="M 40.890625 16.976562 C 43.050781 26.300781 47.492188 49.292969 44.304688 60.449219 C 41.117188 71.601562 41.117188 97.546875 34.972656 104.148438 C 28.828125 110.75 21.316406 108.925781 17.449219 102.554688 C 13.578125 96.183594 15.398438 74.839844 15.855469 62.636719 C 16.308594 50.433594 1.289062 37.003906 0.832031 20.84375 C 0.375 4.683594 6.292969 0.359375 14.71875 0.585938 C 23.136719 0.816406 38.160156 5.183594 40.890625 16.976562 "/>
</g>
</g>
<mask id="mask22">
  <g filter="url(#alpha)">
<rect x="0" y="0" width="1500" height="1100" style="fill:rgb(0%,0%,0%);fill-opacity:0.5;stroke:none;"/>
  </g>
</mask>
<clipPath id="clip46">
  <path d="M 0.851562 0.613281 L 112.957031 0.613281 L 112.957031 163.660156 L 0.851562 163.660156 Z M 0.851562 0.613281 "/>
</clipPath>
<clipPath id="clip45">
  <rect x="0" y="0" width="113" height="164"/>
</clipPath>
<g id="surface71" clip-path="url(#clip45)">
<g clip-path="url(#clip46)" clip-rule="nonzero">
<path class="mat-metal mat-metal" style=" stroke:none;fill-rule:nonzero;fill:rgb(60.4%,63.5%,66.3%);fill-opacity:1;" d="M 69.300781 42.035156 C 69.300781 42.035156 38.121094 13.8125 20.824219 9.261719 C 3.523438 4.710938 1.25 0.613281 1.25 0.613281 C 1.25 0.613281 -1.027344 27.453125 5.34375 46.578125 C 11.71875 65.707031 27.652344 105.765625 30.15625 116.691406 C 32.65625 127.617188 38.121094 151.324219 50.636719 157.453125 C 63.15625 163.578125 84.65625 166.273438 90.75 160.375 C 96.84375 154.472656 112.957031 157.148438 112.957031 157.148438 C 112.957031 157.148438 92.582031 154.238281 80.617188 157.148438 C 68.652344 160.0625 69.53125 115.144531 71.917969 110.054688 C 74.308594 104.96875 57.253906 81.410156 56.90625 73.898438 C 56.554688 66.390625 55.386719 41.238281 69.300781 42.035156 "/>
</g>
</g>
<mask id="mask23">
  <g filter="url(#alpha)">
<rect x="0" y="0" width="1500" height="1100" style="fill:rgb(0%,0%,0%);fill-opacity:0.5;stroke:none;"/>
  </g>
</mask>
<clipPath id="clip48">
  <path d="M 0.03125 0.910156 L 46.074219 0.910156 L 46.074219 50.355469 L 0.03125 50.355469 Z M 0.03125 0.910156 "/>
</clipPath>
<clipPath id="clip47">
  <rect x="0" y="0" width="47" height="51"/>
</clipPath>
<g id="surface74" clip-path="url(#clip47)">
<g clip-path="url(#clip48)" clip-rule="nonzero">
<path class="mat-metal mat-metal" style=" stroke:none;fill-rule:nonzero;fill:rgb(60.4%,63.5%,66.3%);fill-opacity:1;" d="M 10.761719 0.910156 C 10.761719 0.910156 -2.667969 30.269531 0.519531 34.597656 C 3.707031 38.921875 8.988281 45.238281 8.988281 45.238281 C 8.988281 45.238281 39.667969 50.980469 44.21875 50.300781 C 48.769531 49.617188 43.992188 29.1875 40.121094 25.632812 C 36.253906 22.078125 26.921875 1.367188 10.761719 0.910156 "/>
</g>
</g>
<mask id="mask24">
  <g filter="url(#alpha)">
<rect x="0" y="0" width="1500" height="1100" style="fill:rgb(0%,0%,0%);fill-opacity:0.25;stroke:none;"/>
  </g>
</mask>
<clipPath id="clip50">
  <path d="M 0.0546875 0.761719 L 155.742188 0.761719 L 155.742188 70.011719 L 0.0546875 70.011719 Z M 0.0546875 0.761719 "/>
</clipPath>
<clipPath id="clip49">
  <rect x="0" y="0" width="156" height="71"/>
</clipPath>
<g id="surface77" clip-path="url(#clip49)">
<g clip-path="url(#clip50)" clip-rule="nonzero">
<path class="mat-metal mat-metal" style=" stroke:none;fill-rule:nonzero;fill:rgb(60.4%,63.5%,66.3%);fill-opacity:1;" d="M 150.042969 70.011719 C 150.042969 70.011719 128.195312 62.953125 118.179688 54.078125 C 108.164062 45.199219 82.445312 26.082031 82.445312 26.082031 C 82.445312 26.082031 58.921875 12.652344 53.613281 11.96875 C 48.304688 11.285156 30.847656 4.6875 23.074219 5.371094 C 15.300781 6.054688 0.0507812 10.148438 0.0507812 10.148438 C 0.0507812 10.148438 7.558594 5.945312 12.796875 3.207031 C 18.039062 0.46875 24.925781 0.1875 33.074219 1.589844 C 41.222656 2.992188 70.539062 11.8125 76.753906 15.613281 C 82.96875 19.414062 104.332031 39.457031 115.449219 45.429688 C 126.566406 51.398438 139.863281 65.070312 145.035156 64.320312 C 150.207031 63.570312 155.742188 66.140625 155.742188 66.140625 C 155.742188 66.140625 153.457031 69.78125 150.042969 70.011719 "/>
</g>
</g>
<mask id="mask25">
  <g filter="url(#alpha)">
<rect x="0" y="0" width="1500" height="1100" style="fill:rgb(0%,0%,0%);fill-opacity:0.5;stroke:none;"/>
  </g>
</mask>
<clipPath id="clip52">
  <path d="M 0 0.71875 L 105.238281 0.71875 L 105.238281 11.433594 L 0 11.433594 Z M 0 0.71875 "/>
</clipPath>
<clipPath id="clip51">
  <rect x="0" y="0" width="106" height="12"/>
</clipPath>
<g id="surface80" clip-path="url(#clip51)">
<g clip-path="url(#clip52)" clip-rule="nonzero">
<path style=" stroke:none;fill-rule:nonzero;fill:rgb(54.510498%,77.255249%,24.705505%);fill-opacity:1;" d="M 0.00390625 0.71875 L 105.242188 0.71875 L 52.621094 11.433594 Z M 0.00390625 0.71875 "/>
</g>
</g>
<mask id="mask26">
  <g filter="url(#alpha)">
<rect x="0" y="0" width="1500" height="1100" style="fill:rgb(0%,0%,0%);fill-opacity:0.600006;stroke:none;"/>
  </g>
</mask>
<clipPath id="clip54">
  <path d="M 0.386719 0.0742188 L 387.5625 0.0742188 L 387.5625 22.726562 L 0.386719 22.726562 Z M 0.386719 0.0742188 "/>
</clipPath>
<clipPath id="clip53">
  <rect x="0" y="0" width="388" height="23"/>
</clipPath>
<g id="surface83" clip-path="url(#clip53)">
<g clip-path="url(#clip54)" clip-rule="nonzero">
<path class="mat-fiberglass mat-fiberglass" style=" stroke:none;fill-rule:nonzero;fill:rgb(77.3%,74.9%,71.4%);fill-opacity:1;" d="M 387.5625 22.726562 L 0.386719 22.726562 L 0.386719 0.078125 L 376.070312 0.078125 C 385.269531 0.078125 387.5625 5.34375 387.5625 11.59375 Z M 387.5625 22.726562 "/>
</g>
</g>
<mask id="mask27">
  <g filter="url(#alpha)">
<rect x="0" y="0" width="1500" height="1100" style="fill:rgb(0%,0%,0%);fill-opacity:0.600006;stroke:none;"/>
  </g>
</mask>
<clipPath id="clip56">
  <path d="M 0.386719 0.757812 L 387.5625 0.757812 L 387.5625 23.410156 L 0.386719 23.410156 Z M 0.386719 0.757812 "/>
</clipPath>
<clipPath id="clip55">
  <rect x="0" y="0" width="388" height="24"/>
</clipPath>
<g id="surface86" clip-path="url(#clip55)">
<g clip-path="url(#clip56)" clip-rule="nonzero">
<path class="mat-fiberglass mat-fiberglass" style=" stroke:none;fill-rule:nonzero;fill:rgb(77.3%,74.9%,71.4%);fill-opacity:1;" d="M 387.5625 23.410156 L 0.386719 23.410156 L 0.386719 0.757812 L 376.070312 0.757812 C 385.269531 0.757812 387.5625 6.023438 387.5625 12.273438 Z M 387.5625 23.410156 "/>
</g>
</g>
<mask id="mask28">
  <g filter="url(#alpha)">
<rect x="0" y="0" width="1500" height="1100" style="fill:rgb(0%,0%,0%);fill-opacity:0.600006;stroke:none;"/>
  </g>
</mask>
<clipPath id="clip58">
  <path d="M 0.386719 0.875 L 387.5625 0.875 L 387.5625 23.527344 L 0.386719 23.527344 Z M 0.386719 0.875 "/>
</clipPath>
<clipPath id="clip57">
  <rect x="0" y="0" width="388" height="24"/>
</clipPath>
<g id="surface89" clip-path="url(#clip57)">
<g clip-path="url(#clip58)" clip-rule="nonzero">
<path class="mat-fiberglass mat-fiberglass" style=" stroke:none;fill-rule:nonzero;fill:rgb(77.3%,74.9%,71.4%);fill-opacity:1;" d="M 387.5625 23.527344 L 0.386719 23.527344 L 0.386719 0.875 L 376.070312 0.875 C 385.269531 0.875 387.5625 6.140625 387.5625 12.390625 Z M 387.5625 23.527344 "/>
</g>
</g>
</defs>
<g id="surface1">
<path style=" stroke:none;fill-rule:evenodd;fill:rgb(92.941284%,21.568298%,14.117432%);fill-opacity:1;" d="M 125.144531 99.621094 C 125.144531 85.476562 113.683594 74.015625 99.78125 74.015625 C 85.636719 74.015625 74.171875 85.476562 74.171875 99.621094 C 74.171875 113.765625 85.636719 125.230469 99.78125 125.230469 C 113.683594 125.230469 125.144531 113.765625 125.144531 99.621094 M 113.925781 113.035156 C 113.925781 113.035156 108.074219 111.085938 99.78125 111.085938 C 91.246094 111.085938 85.390625 113.035156 85.390625 113.035156 L 85.390625 86.453125 L 85.878906 86.453125 C 85.878906 86.453125 88.078125 109.867188 99.78125 109.867188 C 111.242188 109.867188 113.441406 86.453125 113.441406 86.453125 L 113.925781 86.453125 Z M 113.925781 113.035156 "/>
<path style="fill:none;stroke-width:3;stroke-linecap:butt;stroke-linejoin:miter;stroke:rgb(0%,57.647705%,27.058411%);stroke-opacity:1;stroke-miterlimit:10;" d="M -0.00009375 0.000625 C -13.433688 0.000625 -24.363375 10.930313 -24.363375 24.363906 C -24.363375 37.7975 -13.433688 48.727188 -0.00009375 48.727188 C 13.4335 48.727188 24.363187 37.7975 24.363187 24.363906 C 24.363187 10.930313 13.4335 0.000625 -0.00009375 0.000625 Z M -0.00009375 0.000625 " transform="matrix(1,0,0,-1,1329.9415,122.985)"/>
<path style=" stroke:none;fill-rule:nonzero;fill:rgb(100%,100%,100%);fill-opacity:1;" d="M 1397.191406 73.257812 C 1411.199219 73.257812 1422.554688 84.613281 1422.554688 98.621094 C 1422.554688 112.628906 1411.199219 123.984375 1397.191406 123.984375 C 1383.183594 123.984375 1371.828125 112.628906 1371.828125 98.621094 C 1371.828125 84.613281 1383.183594 73.257812 1397.191406 73.257812 "/>
<path class="mat-metal mat-metal" style=" stroke:none;fill-rule:nonzero;fill:rgb(60.4%,63.5%,66.3%);fill-opacity:1;" d="M 1397.191406 73.257812 C 1411.199219 73.257812 1422.554688 84.613281 1422.554688 98.621094 C 1422.554688 112.628906 1411.199219 123.984375 1397.191406 123.984375 C 1383.183594 123.984375 1371.828125 112.628906 1371.828125 98.621094 C 1371.828125 84.613281 1383.183594 73.257812 1397.191406 73.257812 "/>
<path style="fill:none;stroke-width:3;stroke-linecap:butt;stroke-linejoin:miter;stroke:rgb(0%,0%,0%);stroke-opacity:1;stroke-miterlimit:10;" d="M 0.00178125 0.00111875 L 0.00178125 -52.678569 " transform="matrix(1,0,0,-1,138.549,72.5519)"/>
<path class="mat-fiberglass mat-fiberglass" style=" stroke:none;fill-rule:nonzero;fill:rgb(77.3%,74.9%,71.4%);fill-opacity:1;" d="M 1196.027344 73.257812 C 1182.019531 73.257812 1170.664062 84.613281 1170.664062 98.621094 C 1170.664062 112.628906 1182.019531 123.984375 1196.027344 123.984375 Z M 1196.027344 73.257812 "/>
<path class="mat-fiberglass mat-fiberglass" style=" stroke:none;fill-rule:nonzero;fill:rgb(77.3%,74.9%,71.4%);fill-opacity:1;" d="M 1196.027344 123.984375 C 1210.035156 123.984375 1221.390625 112.628906 1221.390625 98.621094 C 1221.390625 84.613281 1210.035156 73.257812 1196.027344 73.257812 Z M 1196.027344 123.984375 "/>
<path style=" stroke:none;fill-rule:nonzero;fill:rgb(62.745667%,62.745667%,62.745667%);fill-opacity:1;" d="M 963.796875 484.820312 L 576.636719 484.820312 L 576.636719 462.171875 L 952.308594 462.171875 C 961.503906 462.171875 963.796875 467.4375 963.796875 473.683594 Z M 963.796875 484.820312 "/>








































































































































































































<path class="mat-wood mat-wood" style=" stroke:none;fill-rule:nonzero;fill:rgb(49.8%,36.9%,21.2%);fill-opacity:1;" d="M 142.660156 996.457031 L 150.519531 996.457031 C 153.476562 991.121094 199.21875 908.5625 204.300781 897.910156 C 207.5 891.195312 221.457031 862.863281 232.667969 840.097656 C 239.558594 826.105469 245.511719 814.019531 245.777344 813.425781 C 245.824219 813.3125 245.824219 813.222656 245.769531 813.109375 C 245.511719 812.5625 244.269531 811.984375 243.277344 811.664062 L 236.464844 826.308594 C 236.019531 827.132812 234.792969 828.445312 233.234375 827.757812 C 232.5 827.429688 232.296875 826.96875 232.253906 826.640625 C 232.171875 825.941406 232.746094 825.34375 233.011719 825.105469 L 238.828125 809.542969 C 238.628906 809.351562 238.320312 809.125 238.03125 809.136719 C 237.78125 809.144531 237.527344 809.335938 237.28125 809.710938 C 236.207031 811.339844 234.953125 815.289062 234.800781 815.78125 C 234.765625 816.140625 234.558594 818.007812 233.867188 819.039062 C 233.234375 819.988281 231.871094 820.773438 231.425781 821.011719 C 229.664062 824.183594 198.191406 880.894531 196.886719 884.972656 C 196.222656 887.046875 196.738281 887.519531 197.078125 887.835938 C 197.261719 888.007812 197.515625 888.238281 197.511719 888.617188 C 197.511719 889.023438 197.21875 889.371094 196.742188 889.804688 C 195.367188 891.054688 194.351562 891.234375 193.777344 891.195312 C 190.644531 897.429688 147.253906 983.746094 142.660156 996.457031 M 151.121094 997.480469 L 141.246094 997.480469 L 141.453125 996.8125 C 144.671875 986.480469 191.066406 894.308594 193.039062 890.390625 L 193.269531 889.933594 L 193.726562 890.160156 C 193.726562 890.160156 193.765625 890.179688 193.910156 890.179688 C 194.230469 890.179688 194.957031 890.042969 196.054688 889.046875 C 196.277344 888.84375 196.386719 888.71875 196.441406 888.644531 C 196.421875 888.625 196.402344 888.605469 196.382812 888.589844 C 195.914062 888.15625 195.046875 887.355469 195.910156 884.660156 C 197.277344 880.390625 229.242188 822.832031 230.605469 820.382812 L 230.679688 820.242188 L 230.820312 820.171875 C 231.265625 819.953125 232.519531 819.214844 233.019531 818.46875 C 233.519531 817.722656 233.742188 816.171875 233.785156 815.640625 L 233.804688 815.527344 C 233.863281 815.347656 235.207031 811 236.429688 809.144531 C 236.867188 808.476562 237.398438 808.128906 238 808.109375 C 239.023438 808.085938 239.742188 809.015625 239.824219 809.121094 L 239.992188 809.34375 L 233.871094 825.726562 L 233.757812 825.8125 C 233.539062 825.984375 233.25 826.335938 233.273438 826.515625 C 233.285156 826.605469 233.429688 826.722656 233.652344 826.820312 C 234.734375 827.300781 235.519531 825.90625 235.554688 825.847656 L 242.71875 810.441406 L 243.132812 810.554688 C 243.433594 810.632812 246.074219 811.371094 246.695312 812.667969 C 246.875 813.050781 246.882812 813.457031 246.710938 813.839844 C 246.4375 814.457031 240.765625 825.972656 233.585938 840.550781 C 222.96875 862.113281 208.421875 891.644531 205.226562 898.351562 C 199.988281 909.332031 151.753906 996.339844 151.269531 997.214844 Z M 151.121094 997.480469 "/>
<path class="mat-wood mat-wood" style=" stroke:none;fill-rule:nonzero;fill:rgb(49.8%,36.9%,21.2%);fill-opacity:1;" d="M 142.457031 1000.210938 L 150.648438 1000.210938 L 150.648438 998.332031 L 142.457031 998.332031 Z M 151.675781 1001.234375 L 141.433594 1001.234375 L 141.433594 997.308594 L 151.675781 997.308594 Z M 151.675781 1001.234375 "/>
<path class="mat-wood mat-wood" style=" stroke:none;fill-rule:nonzero;fill:rgb(49.8%,36.9%,21.2%);fill-opacity:1;" d="M 292.515625 1022.0625 L 300.777344 1022.0625 C 301.609375 1014.316406 306.148438 927.738281 306.5 912.457031 C 306.832031 898.230469 307.980469 821.285156 308.035156 817.515625 C 307.828125 817.214844 306.753906 815.96875 303.09375 816.023438 C 300.183594 816.054688 299.355469 816.386719 299.15625 816.503906 C 298.96875 819.605469 295.054688 884.492188 294.722656 906.332031 C 294.398438 927.738281 292.667969 1014.484375 292.515625 1022.0625 M 301.660156 1023.085938 L 291.46875 1023.085938 L 291.480469 1022.5625 C 291.5 1021.625 293.363281 928.589844 293.699219 906.316406 C 294.035156 884.238281 298.023438 818.261719 298.136719 816.367188 C 298.132812 816.253906 298.15625 816.089844 298.285156 815.917969 C 298.566406 815.542969 299.371094 815.039062 303.082031 814.996094 C 307.9375 814.925781 308.929688 816.960938 309.023438 817.191406 L 309.066406 817.289062 L 309.0625 817.394531 C 309.050781 818.199219 307.863281 897.964844 307.527344 912.480469 C 307.160156 928.148438 302.394531 1018.761719 301.730469 1022.660156 Z M 301.660156 1023.085938 "/>
<path class="mat-wood mat-wood" style=" stroke:none;fill-rule:nonzero;fill:rgb(49.8%,36.9%,21.2%);fill-opacity:1;" d="M 292.503906 1025.476562 L 300.714844 1025.476562 L 300.714844 1023.9375 L 292.503906 1023.9375 Z M 301.738281 1026.5 L 291.480469 1026.5 L 291.480469 1022.914062 L 301.738281 1022.914062 Z M 301.738281 1026.5 "/>
<path class="mat-wood mat-wood" style=" stroke:none;fill-rule:nonzero;fill:rgb(49.8%,36.9%,21.2%);fill-opacity:1;" d="M 465.492188 996.457031 L 473.351562 996.457031 C 468.757812 983.746094 425.371094 897.429688 422.234375 891.195312 C 421.660156 891.234375 420.644531 891.054688 419.269531 889.804688 C 418.796875 889.371094 418.5 889.023438 418.5 888.617188 C 418.5 888.238281 418.75 888.007812 418.933594 887.835938 C 419.273438 887.519531 419.789062 887.046875 419.125 884.972656 C 417.824219 880.894531 386.347656 824.183594 384.585938 821.011719 C 384.140625 820.773438 382.78125 819.988281 382.140625 819.039062 C 381.453125 818.007812 381.246094 816.140625 381.210938 815.78125 C 381.058594 815.289062 379.804688 811.339844 378.730469 809.710938 C 378.484375 809.335938 378.230469 809.144531 377.980469 809.136719 C 377.699219 809.125 377.382812 809.351562 377.183594 809.542969 L 383 825.105469 C 383.265625 825.34375 383.839844 825.941406 383.757812 826.640625 C 383.714844 826.96875 383.511719 827.429688 382.777344 827.757812 C 381.214844 828.445312 379.992188 827.128906 379.558594 826.335938 L 372.734375 811.664062 C 371.742188 811.984375 370.503906 812.5625 370.242188 813.109375 C 370.1875 813.222656 370.1875 813.3125 370.234375 813.425781 C 370.503906 814.019531 376.453125 826.105469 383.34375 840.097656 C 394.554688 862.863281 408.511719 891.195312 411.710938 897.910156 C 416.792969 908.5625 462.535156 991.121094 465.492188 996.457031 M 474.765625 997.480469 L 464.890625 997.480469 L 464.742188 997.214844 C 464.257812 996.339844 416.023438 909.332031 410.785156 898.351562 C 407.589844 891.644531 393.046875 862.113281 382.425781 840.550781 C 375.246094 825.972656 369.574219 814.457031 369.300781 813.839844 C 369.128906 813.457031 369.136719 813.050781 369.316406 812.667969 C 369.9375 811.371094 372.582031 810.632812 372.878906 810.554688 L 373.292969 810.441406 L 380.472656 825.878906 C 380.492188 825.90625 381.273438 827.300781 382.359375 826.820312 C 382.582031 826.722656 382.726562 826.605469 382.738281 826.515625 C 382.761719 826.335938 382.464844 825.980469 382.253906 825.8125 L 382.140625 825.726562 L 376.019531 809.34375 L 376.1875 809.121094 C 376.265625 809.015625 376.988281 808.085938 378.011719 808.109375 C 378.617188 808.128906 379.144531 808.476562 379.585938 809.144531 C 380.804688 811 382.148438 815.347656 382.207031 815.527344 L 382.226562 815.640625 C 382.269531 816.171875 382.496094 817.722656 382.992188 818.46875 C 383.496094 819.214844 384.75 819.953125 385.1875 820.171875 L 385.332031 820.242188 L 385.410156 820.382812 C 386.769531 822.832031 418.734375 880.390625 420.101562 884.660156 C 420.964844 887.355469 420.097656 888.15625 419.628906 888.589844 C 419.609375 888.605469 419.589844 888.625 419.570312 888.644531 C 419.625 888.71875 419.734375 888.84375 419.957031 889.046875 C 421.492188 890.441406 422.300781 890.152344 422.308594 890.152344 L 422.765625 889.921875 L 422.972656 890.390625 C 424.945312 894.308594 471.339844 986.480469 474.558594 996.8125 Z M 474.765625 997.480469 "/>
<path class="mat-wood mat-wood" style=" stroke:none;fill-rule:nonzero;fill:rgb(49.8%,36.9%,21.2%);fill-opacity:1;" d="M 465.363281 1000.210938 L 473.554688 1000.210938 L 473.554688 998.332031 L 465.363281 998.332031 Z M 474.578125 1001.234375 L 464.339844 1001.234375 L 464.339844 997.308594 L 474.578125 997.308594 Z M 474.578125 1001.234375 "/>
<path class="mat-wood mat-wood" style=" stroke:none;fill-rule:nonzero;fill:rgb(49.8%,36.9%,21.2%);fill-opacity:1;" d="M 315.933594 815.121094 L 315.222656 805.648438 C 314.855469 805.25 313.492188 803.925781 311.617188 803.902344 C 310.320312 803.886719 310.050781 804.0625 310.039062 804.070312 C 310.058594 804.058594 310.109375 804.003906 310.125 803.90625 C 310.132812 803.847656 310.128906 803.761719 310.066406 803.675781 L 309.265625 804.308594 C 309.132812 804.148438 309.027344 803.851562 309.175781 803.550781 C 309.410156 803.058594 310.152344 802.863281 311.628906 802.878906 C 314.316406 802.910156 316.046875 805.027344 316.121094 805.117188 L 316.21875 805.242188 L 316.957031 815.042969 Z M 315.933594 815.121094 "/>
<path class="mat-wood mat-wood" style=" stroke:none;fill-rule:nonzero;fill:rgb(49.8%,36.9%,21.2%);fill-opacity:1;" d="M 317.742188 823.121094 C 317.824219 823.214844 317.96875 823.296875 318.140625 823.289062 C 318.375 823.28125 318.53125 823.113281 318.582031 822.984375 Z M 317.683594 835.035156 C 317.683594 835.003906 317.601562 831.941406 317.550781 828.917969 C 317.523438 827.136719 317.511719 825.71875 317.511719 824.699219 C 317.519531 822.683594 317.523438 822.320312 318.070312 822.265625 C 318.582031 822.21875 318.667969 822.761719 318.699219 822.964844 L 318.585938 822.984375 C 318.464844 823.820312 318.59375 830.753906 318.707031 835.007812 Z M 317.683594 835.035156 "/>
<path class="mat-wood mat-wood" style=" stroke:none;fill-rule:nonzero;fill:rgb(49.8%,36.9%,21.2%);fill-opacity:1;" d="M 320.832031 875.769531 L 319.808594 875.769531 C 319.808594 858.339844 318.535156 840.082031 318.523438 839.902344 L 319.546875 839.828125 C 319.558594 840.011719 320.832031 858.300781 320.832031 875.769531 "/>
<path class="mat-wood mat-wood" style=" stroke:none;fill-rule:nonzero;fill:rgb(49.8%,36.9%,21.2%);fill-opacity:1;" d="M 322.085938 978.277344 L 313.035156 978.277344 L 312.992188 977.808594 C 312.945312 977.328125 308.464844 929.234375 308.464844 900.691406 L 309.488281 900.691406 C 309.488281 927.679688 313.503906 972.214844 313.96875 977.25 L 321.132812 977.25 C 322.921875 950.417969 320.363281 886.820312 320.335938 886.175781 L 321.359375 886.132812 C 321.386719 886.78125 323.980469 951.191406 322.121094 977.796875 Z M 322.085938 978.277344 "/>
<path class="mat-wood mat-wood" style=" stroke:none;fill-rule:nonzero;fill:rgb(49.8%,36.9%,21.2%);fill-opacity:1;" d="M 308.039062 895.683594 L 307.238281 881.65625 L 308.257812 881.597656 L 309.0625 895.625 Z M 308.039062 895.683594 "/>
<path class="mat-fiberglass mat-fiberglass" style=" stroke:none;fill-rule:nonzero;fill:rgb(77.3%,74.9%,71.4%);fill-opacity:1;" d="M 308.140625 902.042969 L 307.355469 901.386719 C 317.347656 889.480469 367.296875 830.058594 369.503906 829.199219 C 370.542969 828.796875 371.492188 828.574219 372.183594 828.410156 C 372.605469 828.3125 373.121094 828.191406 373.289062 828.09375 C 373.347656 827.777344 373.324219 826.832031 373.257812 826.042969 L 370.519531 819.132812 C 370.316406 819.804688 370.132812 820.699219 370.199219 821.617188 C 370.289062 822.90625 369.582031 823.445312 369.015625 823.882812 C 368.484375 824.289062 368.023438 824.640625 367.953125 825.617188 C 367.78125 828.074219 348.175781 847.511719 344.246094 851.382812 L 343.527344 850.652344 C 352.441406 841.867188 366.679688 827.28125 366.933594 825.539062 C 367.035156 824.105469 367.789062 823.53125 368.390625 823.066406 C 368.914062 822.667969 369.230469 822.429688 369.175781 821.691406 C 369.023438 819.523438 370.019531 817.574219 370.0625 817.492188 L 370.578125 816.492188 L 374.261719 825.804688 L 374.269531 825.875 C 374.3125 826.34375 374.433594 827.902344 374.246094 828.472656 C 374.0625 829.023438 373.441406 829.167969 372.414062 829.40625 C 371.714844 829.570312 370.847656 829.777344 369.875 830.15625 C 367.644531 831.449219 324.554688 882.488281 308.140625 902.042969 "/>
<path class="mat-fiberglass mat-fiberglass" style=" stroke:none;fill-rule:nonzero;fill:rgb(77.3%,74.9%,71.4%);fill-opacity:1;" d="M 311.757812 882.300781 L 311.464844 882.019531 L 307.289062 878.554688 L 307.941406 877.765625 L 311.878906 881.03125 C 312.253906 880.917969 312.910156 880.839844 313.953125 881.070312 C 315.152344 881.339844 315.984375 880.25 315.992188 880.238281 L 316.03125 880.195312 L 341.292969 853.226562 L 342.039062 853.925781 L 316.792969 880.882812 C 316.621094 881.09375 315.460938 882.453125 313.730469 882.070312 C 312.523438 881.804688 312.085938 882.046875 312.082031 882.050781 Z M 311.757812 882.300781 "/>
<path class="mat-fiberglass mat-fiberglass" style=" stroke:none;fill-rule:nonzero;fill:rgb(77.3%,74.9%,71.4%);fill-opacity:1;" d="M 294.394531 866.261719 L 273.910156 849.191406 L 274.566406 848.402344 L 295.050781 865.472656 Z M 294.394531 866.261719 "/>
<path class="mat-fiberglass mat-fiberglass" style=" stroke:none;fill-rule:nonzero;fill:rgb(77.3%,74.9%,71.4%);fill-opacity:1;" d="M 294.117188 895.359375 L 243.207031 823.96875 L 267.757812 846.027344 L 267.070312 846.789062 L 249.441406 830.949219 L 294.953125 894.765625 Z M 294.117188 895.359375 "/>
<path class="mat-fiberglass mat-fiberglass" style=" stroke:none;fill-rule:nonzero;fill:rgb(77.3%,74.9%,71.4%);fill-opacity:1;" d="M 294.371094 872.722656 L 271.835938 851.214844 L 272.542969 850.476562 L 295.078125 871.984375 Z M 294.371094 872.722656 "/>
<path class="mat-fiberglass mat-fiberglass" style=" stroke:none;fill-rule:nonzero;fill:rgb(77.3%,74.9%,71.4%);fill-opacity:1;" d="M 308.136719 897.269531 L 307.363281 896.601562 L 328.324219 872.285156 L 320.695312 880.46875 L 319.949219 879.773438 L 345.601562 852.246094 L 346.367188 852.929688 Z M 308.136719 897.269531 "/>
<path class="mat-fiberglass mat-fiberglass" style=" stroke:none;fill-rule:nonzero;fill:rgb(77.3%,74.9%,71.4%);fill-opacity:1;" d="M 406.097656 901.402344 L 404.035156 898.722656 L 404.007812 898.65625 C 403.292969 896.796875 402.578125 894.511719 402.867188 893.421875 C 400.074219 890.96875 367.636719 870.339844 345.929688 856.703125 L 346.472656 855.835938 C 346.617188 855.925781 360.921875 864.914062 375.058594 873.925781 C 403.867188 892.296875 403.929688 892.839844 403.976562 893.273438 L 403.824219 893.710938 C 403.839844 893.695312 403.847656 893.683594 403.847656 893.683594 C 403.652344 894.070312 404.160156 896.179688 404.9375 898.21875 L 406.289062 899.976562 L 407.328125 899.207031 L 409.71875 898.011719 L 410.179688 898.929688 L 407.828125 900.101562 Z M 406.097656 901.402344 "/>
<path class="mat-fiberglass mat-fiberglass" style=" stroke:none;fill-rule:nonzero;fill:rgb(77.3%,74.9%,71.4%);fill-opacity:1;" d="M 267.113281 855.355469 L 266.507812 854.53125 L 295.238281 833.441406 L 297.617188 833.441406 L 297.617188 834.464844 L 295.574219 834.464844 Z M 267.113281 855.355469 "/>
<path class="mat-fiberglass mat-fiberglass" style=" stroke:none;fill-rule:nonzero;fill:rgb(77.3%,74.9%,71.4%);fill-opacity:1;" d="M 209.917969 899.84375 C 208.1875 899.84375 205.359375 897.5625 205.03125 897.292969 L 205.679688 896.5 C 206.839844 897.453125 209.035156 898.917969 210 898.816406 C 210.867188 898.71875 210.925781 897.273438 210.910156 895.535156 C 210.910156 895.375 210.910156 895.214844 210.910156 895.0625 C 210.910156 893.691406 209.832031 893.128906 209.824219 893.125 L 209.035156 892.722656 L 263.0625 857.214844 L 263.625 858.070312 L 210.941406 892.699219 C 211.398438 893.140625 211.933594 893.90625 211.933594 895.0625 C 211.933594 895.214844 211.933594 895.367188 211.9375 895.527344 C 211.949219 897.257812 211.96875 899.625 210.113281 899.832031 C 210.046875 899.839844 209.984375 899.84375 209.917969 899.84375 "/>
<path class="mat-fiberglass mat-fiberglass" style=" stroke:none;fill-rule:nonzero;fill:rgb(77.3%,74.9%,71.4%);fill-opacity:1;" d="M 209.214844 889.972656 L 208.644531 889.121094 L 260.125 854.515625 L 260.699219 855.367188 Z M 209.214844 889.972656 "/>
<path class="mat-fiberglass mat-fiberglass" style=" stroke:none;fill-rule:nonzero;fill:rgb(77.3%,74.9%,71.4%);fill-opacity:1;" d="M 264.320312 852.683594 L 263.714844 851.859375 L 297.3125 827.046875 L 297.921875 827.871094 Z M 264.320312 852.683594 "/>
<path class="mat-fiberglass mat-fiberglass" style=" stroke:none;fill-rule:nonzero;fill:rgb(77.3%,74.9%,71.4%);fill-opacity:1;" d="M 293.105469 902.003906 C 279.789062 882.417969 245.03125 831.585938 242.484375 829.152344 C 241.125 828.980469 239.886719 826.863281 239.644531 826.425781 L 239.515625 826.191406 L 239.632812 825.949219 C 241.035156 823.101562 243.628906 818.421875 245.253906 819.136719 C 246.800781 819.816406 248.15625 821.976562 248.214844 822.066406 L 248.304688 822.207031 L 248.121094 824.742188 C 248.046875 825.75 248.289062 825.953125 248.316406 825.972656 C 248.398438 826.03125 248.554688 825.984375 248.59375 825.96875 L 248.886719 825.84375 L 249.136719 826.046875 L 269.820312 843.703125 L 297.308594 823.121094 L 297.921875 823.941406 L 269.78125 845.015625 L 248.679688 827.003906 C 248.425781 827.046875 248.070312 827.046875 247.738281 826.816406 C 247.230469 826.46875 247.019531 825.765625 247.097656 824.671875 L 247.257812 822.472656 C 246.953125 822.015625 245.902344 820.539062 244.84375 820.074219 L 244.839844 820.074219 C 244.238281 820.074219 242.3125 822.886719 240.675781 826.15625 C 241.199219 827.03125 242.101562 828.140625 242.660156 828.140625 C 243.050781 828.140625 243.335938 828.140625 251.53125 839.773438 C 255.800781 845.835938 261.667969 854.285156 268.964844 864.894531 C 281.390625 882.949219 293.828125 901.242188 293.953125 901.425781 Z M 293.105469 902.003906 "/>
<path class="mat-fiberglass mat-fiberglass" style=" stroke:none;fill-rule:nonzero;fill:rgb(77.3%,74.9%,71.4%);fill-opacity:1;" d="M 214.238281 886.59375 L 213.617188 885.78125 L 258.050781 851.863281 L 258.675781 852.675781 Z M 214.238281 886.59375 "/>
<path class="mat-fiberglass mat-fiberglass" style=" stroke:none;fill-rule:nonzero;fill:rgb(77.3%,74.9%,71.4%);fill-opacity:1;" d="M 346.371094 852.925781 L 345.585938 852.265625 L 364.746094 829.390625 L 365.53125 830.050781 Z M 346.371094 852.925781 "/>
<path class="mat-fiberglass mat-fiberglass" style=" stroke:none;fill-rule:nonzero;fill:rgb(77.3%,74.9%,71.4%);fill-opacity:1;" d="M 310.402344 833.816406 L 310.964844 834.175781 C 311.003906 833.816406 311.097656 833.472656 311.289062 833.273438 C 311.34375 833.214844 311.410156 833.164062 311.476562 833.128906 C 311.492188 832.949219 311.460938 832.660156 311.410156 832.378906 C 311.40625 832.394531 311.402344 832.410156 311.398438 832.421875 C 311.179688 833.191406 310.988281 833.859375 310.402344 833.816406 M 342.929688 855.503906 L 311.519531 835.742188 L 306.234375 832.375 L 308.363281 832.585938 C 308.363281 832.585938 309.605469 832.707031 310.21875 832.769531 C 310.285156 832.59375 310.359375 832.328125 310.410156 832.144531 C 310.625 831.378906 310.765625 830.9375 311.125 830.757812 C 311.289062 830.675781 311.472656 830.671875 311.640625 830.738281 C 312.386719 831.039062 312.574219 832.878906 312.46875 833.421875 C 312.402344 833.765625 312.21875 833.953125 312.027344 834.03125 C 311.984375 834.1875 311.957031 834.496094 311.960938 834.808594 L 343.476562 854.636719 Z M 342.929688 855.503906 "/>
<path class="mat-fiberglass mat-fiberglass" style=" stroke:none;fill-rule:nonzero;fill:rgb(77.3%,74.9%,71.4%);fill-opacity:1;" d="M 345.320312 853.027344 L 314.152344 833.035156 L 314.089844 832.933594 C 312.78125 830.832031 311.035156 828.4375 310.503906 828.238281 C 309.644531 827.914062 309.070312 828.003906 309.066406 828.003906 L 308.882812 827 C 308.96875 826.980469 309.738281 826.855469 310.863281 827.277344 C 311.933594 827.679688 314.148438 831.097656 314.898438 832.296875 L 345.875 852.164062 Z M 345.320312 853.027344 "/>
<path class="mat-fiberglass mat-fiberglass" style=" stroke:none;fill-rule:nonzero;fill:rgb(77.3%,74.9%,71.4%);fill-opacity:1;" d="M 347.746094 846.761719 L 318.542969 823.203125 C 317.957031 823.230469 316.40625 823.238281 315.570312 822.566406 C 315.019531 822.125 314.398438 821.902344 314.109375 821.816406 C 313.496094 822.109375 311.875 822.785156 310.980469 822.269531 C 310.207031 821.820312 308.367188 821.023438 308.347656 821.015625 L 308.753906 820.074219 C 308.832031 820.109375 310.667969 820.902344 311.496094 821.382812 C 311.832031 821.574219 312.992188 821.238281 313.824219 820.816406 L 313.984375 820.730469 L 314.164062 820.769531 C 314.210938 820.78125 315.273438 821.019531 316.210938 821.765625 C 316.777344 822.21875 318.207031 822.207031 318.664062 822.167969 L 318.867188 822.152344 L 319.027344 822.28125 L 348.390625 845.964844 Z M 347.746094 846.761719 "/>
<path class="mat-fiberglass mat-fiberglass" style=" stroke:none;fill-rule:nonzero;fill:rgb(77.3%,74.9%,71.4%);fill-opacity:1;" d="M 349.996094 843.9375 L 320.78125 818.945312 C 320.558594 818.785156 318.210938 817.148438 316.484375 816.6875 C 315.371094 816.390625 315.03125 815.9375 314.726562 815.421875 C 314.546875 815.109375 314.425781 814.90625 313.820312 814.71875 C 312.585938 814.339844 310.234375 814.925781 309.433594 815.1875 L 309.117188 814.210938 C 309.246094 814.167969 312.324219 813.1875 314.121094 813.738281 C 315.109375 814.042969 315.386719 814.523438 315.613281 814.90625 C 315.808594 815.242188 315.949219 815.484375 316.746094 815.699219 C 318.734375 816.226562 321.289062 818.046875 321.394531 818.125 L 321.429688 818.152344 L 350.664062 843.160156 Z M 349.996094 843.9375 "/>
<path class="mat-fiberglass mat-fiberglass" style=" stroke:none;fill-rule:nonzero;fill:rgb(77.3%,74.9%,71.4%);fill-opacity:1;" d="M 309.0625 816.984375 L 308.039062 816.9375 L 308.71875 801.441406 C 307.859375 801.917969 306.414062 802.472656 304.53125 802.277344 C 302.546875 802.074219 300.980469 801.546875 300.132812 801.207031 L 299.117188 815.546875 L 298.097656 815.472656 L 299.21875 799.636719 L 299.90625 799.988281 C 299.925781 800 301.871094 800.972656 304.632812 801.257812 C 307.257812 801.527344 308.917969 800.078125 308.933594 800.0625 L 309.839844 799.257812 L 309.789062 800.46875 Z M 309.0625 816.984375 "/>
<path class="mat-fiberglass mat-fiberglass" style=" stroke:none;fill-rule:nonzero;fill:rgb(77.3%,74.9%,71.4%);fill-opacity:1;" d="M 318.707031 816.148438 L 317.683594 816.148438 L 317.683594 793.703125 L 318.707031 793.703125 Z M 318.707031 816.148438 "/>
<path class="mat-fiberglass mat-fiberglass" style=" stroke:none;fill-rule:nonzero;fill:rgb(77.3%,74.9%,71.4%);fill-opacity:1;" d="M 316.316406 815.742188 L 315.933594 804.945312 L 315.933594 793.488281 L 316.957031 793.488281 L 316.957031 804.925781 L 317.339844 815.703125 Z M 316.316406 815.742188 "/>
<path class="mat-fiberglass mat-fiberglass" style=" stroke:none;fill-rule:nonzero;fill:rgb(77.3%,74.9%,71.4%);fill-opacity:1;" d="M 301.125 801.054688 L 298.789062 799.964844 L 298.5625 792.265625 L 299.589844 792.238281 L 299.792969 799.304688 L 300.015625 799.410156 L 299.734375 793.660156 L 312.289062 793.191406 L 312.324219 794.214844 L 300.808594 794.644531 Z M 301.125 801.054688 "/>
<path class="mat-fiberglass mat-fiberglass" style=" stroke:none;fill-rule:nonzero;fill:rgb(77.3%,74.9%,71.4%);fill-opacity:1;" d="M 408.75 893.679688 L 407.960938 893.023438 C 407.875 893.125 407.867188 893.21875 407.871094 893.246094 C 407.871094 893.230469 407.796875 892.816406 406.496094 891.757812 C 404.636719 890.242188 348.363281 854.871094 347.796875 854.515625 L 348.339844 853.648438 C 350.664062 855.109375 405.234375 889.40625 407.140625 890.960938 C 408.265625 891.875 408.839844 892.59375 408.890625 893.144531 C 408.917969 893.4375 408.800781 893.617188 408.75 893.679688 "/>
<path class="mat-fiberglass mat-fiberglass" style=" stroke:none;fill-rule:nonzero;fill:rgb(77.3%,74.9%,71.4%);fill-opacity:1;" d="M 385.480469 877.652344 C 384.679688 876.296875 365.113281 860.640625 352.160156 850.453125 L 352.796875 849.648438 C 356.136719 852.273438 385.457031 875.375 386.390625 877.183594 Z M 385.480469 877.652344 "/>
<path class="mat-fiberglass mat-fiberglass" style=" stroke:none;fill-rule:nonzero;fill:rgb(77.3%,74.9%,71.4%);fill-opacity:1;" d="M 403.40625 888.953125 C 402.152344 887.417969 377.835938 866.601562 374.074219 863.714844 C 370.191406 860.730469 354.089844 848.1875 353.925781 848.0625 L 354.554688 847.253906 C 354.71875 847.382812 370.816406 859.921875 374.699219 862.898438 C 378.65625 865.941406 402.867188 886.671875 404.199219 888.304688 Z M 403.40625 888.953125 "/>
<path class="mat-fiberglass mat-fiberglass" style=" stroke:none;fill-rule:nonzero;fill:rgb(77.3%,74.9%,71.4%);fill-opacity:1;" d="M 302.597656 822.6875 C 301.648438 823.191406 300.273438 824.207031 300.273438 825.027344 C 300.273438 825.902344 300.558594 827.375 302.492188 827.375 C 304.082031 827.375 305.066406 826.386719 305.179688 824.671875 C 305.210938 824.222656 305.097656 823.859375 304.835938 823.5625 C 304.269531 822.917969 303.167969 822.738281 302.597656 822.6875 M 302.492188 828.398438 C 300.097656 828.398438 299.246094 826.65625 299.246094 825.027344 C 299.246094 823.265625 301.953125 821.863281 302.261719 821.710938 L 302.386719 821.648438 L 302.523438 821.65625 C 303.316406 821.707031 304.769531 821.929688 305.609375 822.886719 C 306.050781 823.390625 306.25 824.015625 306.203125 824.742188 C 306.050781 826.996094 304.628906 828.398438 302.492188 828.398438 "/>
<path class="mat-fiberglass mat-fiberglass" style=" stroke:none;fill-rule:nonzero;fill:rgb(77.3%,74.9%,71.4%);fill-opacity:1;" d="M 299.976562 899.839844 C 299.914062 899.839844 299.851562 899.839844 299.789062 899.84375 C 299.128906 899.886719 298.441406 900.238281 297.957031 900.796875 C 297.617188 901.1875 297.425781 901.628906 297.453125 901.980469 C 297.511719 902.765625 298.066406 904.113281 299.78125 904.191406 C 301.433594 904.261719 302.425781 902.734375 302.597656 902.164062 C 302.714844 901.777344 302.191406 900.507812 300.976562 900.023438 C 300.664062 899.902344 300.332031 899.839844 299.976562 899.839844 M 299.90625 905.21875 C 299.851562 905.21875 299.792969 905.214844 299.734375 905.214844 C 297.621094 905.117188 296.539062 903.511719 296.433594 902.058594 C 296.386719 901.429688 296.660156 900.722656 297.1875 900.121094 C 297.847656 899.363281 298.796875 898.878906 299.726562 898.820312 C 300.296875 898.785156 300.847656 898.871094 301.355469 899.074219 C 302.957031 899.710938 303.882812 901.445312 303.578125 902.460938 C 303.304688 903.378906 302.050781 905.21875 299.90625 905.21875 "/>
<path class="mat-fiberglass mat-fiberglass" style=" stroke:none;fill-rule:nonzero;fill:rgb(77.3%,74.9%,71.4%);fill-opacity:1;" d="M 313.246094 889.9375 C 313.15625 889.9375 311.078125 889.914062 310.453125 888.050781 C 310.117188 887.035156 309.957031 886.238281 309.886719 885.78125 C 309.074219 885.660156 308.199219 885.425781 307.914062 885 C 307.796875 884.820312 307.765625 884.613281 307.824219 884.414062 C 307.90625 884.128906 307.863281 883.261719 307.804688 882.738281 L 308.824219 882.625 C 308.847656 882.839844 308.949219 883.835938 308.855469 884.46875 C 309.132812 884.59375 309.792969 884.746094 310.402344 884.820312 L 310.820312 884.867188 L 310.855469 885.285156 C 310.855469 885.292969 310.941406 886.277344 311.425781 887.726562 C 311.8125 888.882812 313.1875 888.910156 313.246094 888.914062 Z M 313.246094 889.9375 "/>
<path class="mat-metal mat-metal" style=" stroke:none;fill-rule:nonzero;fill:rgb(60.4%,63.5%,66.3%);fill-opacity:1;" d="M 195.121094 574.980469 C 178.140625 574.980469 165.996094 582.25 158.007812 597.175781 C 155.523438 601.824219 153.496094 607.078125 151.53125 612.160156 C 148.867188 619.0625 146.109375 626.203125 142.15625 631.9375 C 139.367188 635.988281 136.269531 639.804688 133.535156 643.167969 C 130.042969 647.472656 126.742188 651.535156 126.917969 652.9375 C 126.972656 653.03125 127.542969 653.675781 132.792969 654.4375 C 136.226562 654.933594 140.683594 655.355469 144.996094 655.761719 C 152.066406 656.433594 158.746094 657.066406 160.765625 657.996094 C 165.644531 660.25 170.195312 688.296875 169.898438 706.8125 C 169.753906 716.015625 172.292969 729.578125 176.527344 742.210938 C 181.109375 755.886719 186.824219 766.050781 192.199219 770.09375 C 204.296875 779.191406 232.925781 787.035156 245.585938 787.6875 L 246.074219 787.710938 L 246.074219 793.628906 L 266.902344 793.242188 L 266.898438 787.710938 L 291.566406 786.289062 L 291.566406 790.460938 L 315.941406 792.808594 C 316.296875 792.824219 354.875 794.492188 389.953125 792.804688 C 432.65625 790.753906 457.335938 785.558594 465.394531 776.921875 C 474.394531 767.277344 474.261719 756.660156 472.773438 746.621094 C 472.035156 741.652344 467.414062 720.277344 463.335938 701.421875 C 459.828125 685.203125 456.515625 669.882812 456.042969 666.734375 C 455.078125 660.289062 445.890625 653.167969 438.320312 651.105469 C 435.667969 650.378906 422.136719 649.082031 405.003906 647.433594 C 374.519531 644.503906 332.769531 640.496094 322.207031 636.753906 C 312.535156 633.328125 293.832031 619.265625 277.328125 606.859375 C 265.652344 598.078125 255.570312 590.496094 250.804688 588.253906 C 244.402344 585.242188 221.53125 575.378906 196.050781 574.988281 C 195.738281 574.984375 195.425781 574.980469 195.121094 574.980469 M 245.050781 794.671875 L 245.050781 788.679688 C 232.03125 787.855469 203.671875 780 191.582031 770.910156 C 186.046875 766.75 180.203125 756.40625 175.554688 742.535156 C 171.285156 729.800781 168.726562 716.109375 168.875 706.796875 C 169.179688 687.640625 164.390625 660.796875 160.335938 658.925781 C 158.476562 658.070312 151.574219 657.414062 144.898438 656.785156 C 131.859375 655.546875 126.121094 654.824219 125.902344 653.0625 C 125.683594 651.3125 128.097656 648.246094 132.742188 642.523438 C 135.460938 639.171875 138.546875 635.375 141.3125 631.355469 C 145.195312 625.71875 147.929688 618.636719 150.578125 611.789062 C 152.550781 606.679688 154.589844 601.398438 157.105469 596.695312 C 165.433594 581.125 178.183594 573.695312 196.066406 573.964844 C 221.753906 574.359375 244.792969 584.292969 251.242188 587.328125 C 256.097656 589.613281 266.222656 597.226562 277.945312 606.039062 C 294.390625 618.402344 313.027344 632.417969 322.546875 635.789062 C 332.996094 639.488281 374.671875 643.492188 405.101562 646.414062 C 422.28125 648.066406 435.851562 649.371094 438.589844 650.117188 C 446.480469 652.269531 456.003906 659.558594 457.054688 666.582031 C 457.523438 669.699219 460.835938 685 464.339844 701.203125 C 468.617188 721 473.046875 741.46875 473.785156 746.46875 C 475.308594 756.761719 475.441406 767.660156 466.140625 777.621094 C 457.777344 786.585938 433.582031 791.734375 390 793.828125 C 354.878906 795.519531 316.253906 793.847656 315.867188 793.828125 L 290.542969 791.394531 L 290.542969 787.375 L 267.921875 788.679688 L 267.925781 794.246094 Z M 245.050781 794.671875 "/>
<path class="mat-metal mat-metal" style=" stroke:none;fill-rule:nonzero;fill:rgb(60.4%,63.5%,66.3%);fill-opacity:1;" d="M 317.652344 772.460938 C 308.53125 772.460938 301.015625 772.308594 296.734375 771.980469 C 278.371094 770.566406 268.984375 766.226562 260.855469 755.386719 C 253.175781 745.148438 241.476562 705.167969 237.632812 692.027344 C 237.335938 691.015625 237.082031 690.148438 236.875 689.445312 L 236.613281 688.558594 C 233.859375 679.214844 232.828125 675.71875 225.863281 669.191406 C 218.589844 662.375 214.117188 661.101562 198.140625 658.628906 C 182.183594 656.152344 138.753906 652.523438 138.316406 652.484375 L 138.402344 651.464844 C 138.839844 651.503906 182.304688 655.136719 198.296875 657.613281 C 214.269531 660.089844 219.132812 661.476562 226.566406 668.445312 C 233.730469 675.160156 234.863281 679 237.597656 688.269531 L 237.859375 689.15625 C 238.066406 689.855469 238.320312 690.726562 238.617188 691.738281 C 242.449219 704.835938 254.109375 744.683594 261.675781 754.773438 C 269.597656 765.335938 278.792969 769.570312 296.8125 770.957031 C 314.554688 772.320312 387.929688 770.679688 399.976562 767.558594 L 400.234375 768.550781 C 391.042969 770.933594 346.402344 772.460938 317.652344 772.460938 "/>
<path style="fill:none;stroke-width:3;stroke-linecap:butt;stroke-linejoin:miter;stroke:rgb(94.902039%,56.863403%,73.725891%);stroke-opacity:1;stroke-miterlimit:10;" d="M -0.0011 0.000625 C -13.434694 0.000625 -24.364381 10.930313 -24.364381 24.363906 C -24.364381 37.7975 -13.434694 48.727188 -0.0011 48.727188 C 13.432494 48.727188 24.362181 37.7975 24.362181 24.363906 C 24.362181 10.930313 13.432494 0.000625 -0.0011 0.000625 Z M -0.0011 0.000625 " transform="matrix(1,0,0,-1,1397.2511,122.985)"/>
<path style="fill:none;stroke-width:3;stroke-linecap:butt;stroke-linejoin:miter;stroke:rgb(94.902039%,56.863403%,73.725891%);stroke-opacity:1;stroke-miterlimit:10;" d="M -0.0011 0.000625 C -13.434694 0.000625 -24.364381 10.930313 -24.364381 24.363906 C -24.364381 37.7975 -13.434694 48.727188 -0.0011 48.727188 C 13.432494 48.727188 24.362181 37.7975 24.362181 24.363906 C 24.362181 10.930313 13.432494 0.000625 -0.0011 0.000625 Z M -0.0011 0.000625 " transform="matrix(1,0,0,-1,1397.2511,122.985)"/>
<path style="fill:none;stroke-width:3;stroke-linecap:butt;stroke-linejoin:miter;stroke:rgb(14.509583%,66.275024%,87.843323%);stroke-opacity:1;stroke-miterlimit:10;" d="M -0.000125 0.000625 C -13.433719 0.000625 -24.363406 10.930313 -24.363406 24.363906 C -24.363406 37.7975 -13.433719 48.727188 -0.000125 48.727188 C 13.433469 48.727188 24.363156 37.7975 24.363156 24.363906 C 24.363156 10.930313 13.433469 0.000625 -0.000125 0.000625 Z M -0.000125 0.000625 " transform="matrix(1,0,0,-1,1263.4845,122.985)"/>
<path class="mat-wood mat-wood" style=" stroke:none;fill-rule:nonzero;fill:rgb(49.8%,36.9%,21.2%);fill-opacity:1;" d="M 1329.941406 73.257812 C 1343.949219 73.257812 1355.304688 84.613281 1355.304688 98.621094 C 1355.304688 112.628906 1343.949219 123.984375 1329.941406 123.984375 C 1315.933594 123.984375 1304.578125 112.628906 1304.578125 98.621094 C 1304.578125 84.613281 1315.933594 73.257812 1329.941406 73.257812 "/>
<path style=" stroke:none;fill-rule:nonzero;fill:rgb(100%,100%,100%);fill-opacity:1;" d="M 1452.394531 1103.238281 L 1023.851562 1103.238281 L 1023.851562 980.550781 L 1452.394531 980.550781 Z M 1452.394531 1103.238281 "/>
</g>
<use xlink:href="#surface5" transform="matrix(1,0,0,1,1031,1034)" mask="url(#mask0)"/>
<use xlink:href="#surface8" transform="matrix(1,0,0,1,1031,650)" mask="url(#mask1)"/>
<use xlink:href="#surface11" transform="matrix(1,0,0,1,1031,520)" mask="url(#mask2)"/>
<use xlink:href="#surface14" transform="matrix(1,0,0,1,1031,390)" mask="url(#mask3)"/>
<use xlink:href="#surface17" transform="matrix(1,0,0,1,1031,168)" mask="url(#mask4)"/>
<use xlink:href="#surface20" transform="matrix(1,0,0,1,1031,279)" mask="url(#mask5)"/>
<use xlink:href="#surface23" transform="matrix(1,0,0,1,51,49)" mask="url(#mask6)"/>
<use xlink:href="#surface26" transform="matrix(1,0,0,1,1380,81)" mask="url(#mask7)"/>
<use xlink:href="#surface29" transform="matrix(1,0,0,1,1312,81)" mask="url(#mask8)"/>
<use xlink:href="#surface32" transform="matrix(1,0,0,1,1246,81)" mask="url(#mask9)"/>
<use xlink:href="#surface35" transform="matrix(1,0,0,1,1178,81)" mask="url(#mask10)"/>
<use xlink:href="#surface38" transform="matrix(1,0,0,1,576,168)" mask="url(#mask11)"/>
<use xlink:href="#surface41" transform="matrix(1,0,0,1,576,279)" mask="url(#mask12)"/>
<use xlink:href="#surface44" transform="matrix(1,0,0,1,576,371)" mask="url(#mask13)"/>
<use xlink:href="#surface47" transform="matrix(1,0,0,1,232,793)" mask="url(#mask14)"/>
<use xlink:href="#surface50" transform="matrix(1,0,0,1,348,793)" mask="url(#mask15)"/>
<use xlink:href="#surface53" transform="matrix(1,0,0,1,272,667)" mask="url(#mask16)"/>
<use xlink:href="#surface56" transform="matrix(1,0,0,1,358,648)" mask="url(#mask17)"/>
<use xlink:href="#surface59" transform="matrix(1,0,0,1,355,749)" mask="url(#mask18)"/>
<use xlink:href="#surface62" transform="matrix(1,0,0,1,128,651)" mask="url(#mask19)"/>
<use xlink:href="#surface65" transform="matrix(1,0,0,1,314,651)" mask="url(#mask20)"/>
<use xlink:href="#surface68" transform="matrix(1,0,0,1,275,635)" mask="url(#mask21)"/>
<use xlink:href="#surface71" transform="matrix(1,0,0,1,217,589)" mask="url(#mask22)"/>
<use xlink:href="#surface74" transform="matrix(1,0,0,1,154,606)" mask="url(#mask23)"/>
<use xlink:href="#surface77" transform="matrix(1,0,0,1,177,574)" mask="url(#mask24)"/>
<use xlink:href="#surface80" transform="matrix(1,0,0,1,1185,990)" mask="url(#mask25)"/>
<use xlink:href="#surface83" transform="matrix(1,0,0,1,119,169)" mask="url(#mask26)"/>
<use xlink:href="#surface86" transform="matrix(1,0,0,1,119,259)" mask="url(#mask27)"/>
<use xlink:href="#surface89" transform="matrix(1,0,0,1,119,350)" mask="url(#mask28)"/>
</svg>
