<?xml version="1.0" encoding="UTF-8"?>
<svg width="100%" height="100%" xmlns="http://www.w3.org/2000/svg" xmlns:xlink="http://www.w3.org/1999/xlink" viewBox="136 554 349 490" version="1.2">
<defs>
<filter id="alpha" filterUnits="objectBoundingBox" x="0%" y="0%" width="100%" height="100%">
  <feColorMatrix type="matrix" in="SourceGraphic" values="0 0 0 0 1 0 0 0 0 1 0 0 0 0 1 0 0 0 1 0"/>
</filter>
<mask id="mask0">
  <g filter="url(#alpha)">
<rect x="0" y="0" width="1500" height="1100" style="fill:rgb(0%,0%,0%);fill-opacity:0.100006;stroke:none;"/>
  </g>
</mask>
<clipPath id="clip2">
  <path d="M 0.5625 0.371094 L 1397.441406 0.371094 L 1397.441406 97.179688 L 0.5625 97.179688 Z M 0.5625 0.371094 "/>
</clipPath>
<clipPath id="clip1">
  <rect x="0" y="0" width="1398" height="98"/>
</clipPath>
<g id="surface5" clip-path="url(#clip1)">
<g clip-path="url(#clip2)" clip-rule="nonzero">
<path style=" stroke:none;fill-rule:nonzero;fill:rgb(77.6474%,61.177063%,42.744446%);fill-opacity:1;" d="M 1397.4375 97.179688 L 0.5625 97.179688 L 0.5625 0.371094 L 1397.4375 0.371094 Z M 1397.4375 97.179688 "/>
</g>
</g>
<mask id="mask1">
  <g filter="url(#alpha)">
<rect x="0" y="0" width="1500" height="1100" style="fill:rgb(0%,0%,0%);fill-opacity:0.5;stroke:none;"/>
  </g>
</mask>
<clipPath id="clip4">
  <path d="M 0.320312 0.800781 L 44.589844 0.800781 L 44.589844 45.066406 L 0.320312 45.066406 Z M 0.320312 0.800781 "/>
</clipPath>
<clipPath id="clip3">
  <rect x="0" y="0" width="45" height="46"/>
</clipPath>
<g id="surface8" clip-path="url(#clip3)">
<g clip-path="url(#clip4)" clip-rule="nonzero">
<path style=" stroke:none;fill-rule:nonzero;fill:rgb(77.6474%,61.177063%,42.744446%);fill-opacity:1;" d="M 36.128906 0.800781 C 40.144531 5.285156 42.589844 11.207031 42.589844 17.703125 C 42.589844 31.710938 31.234375 43.066406 17.226562 43.066406 C 10.730469 43.066406 4.808594 40.621094 0.320312 36.609375 C 4.964844 41.796875 11.710938 45.066406 19.226562 45.066406 C 33.234375 45.066406 44.589844 33.710938 44.589844 19.703125 C 44.589844 12.191406 41.320312 5.445312 36.128906 0.800781 "/>
</g>
</g>
<mask id="mask2">
  <g filter="url(#alpha)">
<rect x="0" y="0" width="1500" height="1100" style="fill:rgb(0%,0%,0%);fill-opacity:0.5;stroke:none;"/>
  </g>
</mask>
<clipPath id="clip6">
  <path d="M 0.800781 0.800781 L 45.070312 0.800781 L 45.070312 45.066406 L 0.800781 45.066406 Z M 0.800781 0.800781 "/>
</clipPath>
<clipPath id="clip5">
  <rect x="0" y="0" width="46" height="46"/>
</clipPath>
<g id="surface11" clip-path="url(#clip5)">
<g clip-path="url(#clip6)" clip-rule="nonzero">
<path style=" stroke:none;fill-rule:nonzero;fill:rgb(77.6474%,61.177063%,42.744446%);fill-opacity:1;" d="M 36.613281 0.800781 C 40.628906 5.285156 43.070312 11.207031 43.070312 17.703125 C 43.070312 31.710938 31.714844 43.066406 17.707031 43.066406 C 11.214844 43.066406 5.292969 40.621094 0.804688 36.609375 C 5.449219 41.796875 12.195312 45.066406 19.707031 45.066406 C 33.714844 45.066406 45.070312 33.710938 45.070312 19.703125 C 45.070312 12.191406 41.800781 5.445312 36.613281 0.800781 "/>
</g>
</g>
<mask id="mask3">
  <g filter="url(#alpha)">
<rect x="0" y="0" width="1500" height="1100" style="fill:rgb(0%,0%,0%);fill-opacity:0.5;stroke:none;"/>
  </g>
</mask>
<clipPath id="clip8">
  <path d="M 0.0898438 0.800781 L 44.359375 0.800781 L 44.359375 45.066406 L 0.0898438 45.066406 Z M 0.0898438 0.800781 "/>
</clipPath>
<clipPath id="clip7">
  <rect x="0" y="0" width="45" height="46"/>
</clipPath>
<g id="surface14" clip-path="url(#clip7)">
<g clip-path="url(#clip8)" clip-rule="nonzero">
<path style=" stroke:none;fill-rule:nonzero;fill:rgb(77.6474%,61.177063%,42.744446%);fill-opacity:1;" d="M 35.902344 0.800781 C 39.917969 5.285156 42.363281 11.207031 42.363281 17.703125 C 42.363281 31.710938 31.003906 43.066406 16.996094 43.066406 C 10.503906 43.066406 4.582031 40.621094 0.09375 36.609375 C 4.738281 41.796875 11.484375 45.066406 18.996094 45.066406 C 33.003906 45.066406 44.363281 33.710938 44.363281 19.703125 C 44.363281 12.191406 41.089844 5.445312 35.902344 0.800781 "/>
</g>
</g>
<mask id="mask4">
  <g filter="url(#alpha)">
<rect x="0" y="0" width="1500" height="1100" style="fill:rgb(0%,0%,0%);fill-opacity:0.5;stroke:none;"/>
  </g>
</mask>
<clipPath id="clip10">
  <path d="M 0.738281 0.800781 L 45.011719 0.800781 L 45.011719 45.066406 L 0.738281 45.066406 Z M 0.738281 0.800781 "/>
</clipPath>
<clipPath id="clip9">
  <rect x="0" y="0" width="46" height="46"/>
</clipPath>
<g id="surface17" clip-path="url(#clip9)">
<g clip-path="url(#clip10)" clip-rule="nonzero">
<path style=" stroke:none;fill-rule:nonzero;fill:rgb(77.6474%,61.177063%,42.744446%);fill-opacity:1;" d="M 36.546875 0.800781 C 40.5625 5.285156 43.007812 11.207031 43.007812 17.703125 C 43.007812 31.710938 31.652344 43.066406 17.644531 43.066406 C 11.148438 43.066406 5.226562 40.621094 0.738281 36.609375 C 5.382812 41.796875 12.132812 45.066406 19.644531 45.066406 C 33.652344 45.066406 45.007812 33.710938 45.007812 19.703125 C 45.007812 12.191406 41.738281 5.445312 36.546875 0.800781 "/>
</g>
</g>
<mask id="mask5">
  <g filter="url(#alpha)">
<rect x="0" y="0" width="1500" height="1100" style="fill:rgb(0%,0%,0%);fill-opacity:0.600006;stroke:none;"/>
  </g>
</mask>
<clipPath id="clip12">
  <path d="M 0.820312 0.808594 L 387.980469 0.808594 L 387.980469 23.460938 L 0.820312 23.460938 Z M 0.820312 0.808594 "/>
</clipPath>
<clipPath id="clip11">
  <rect x="0" y="0" width="388" height="24"/>
</clipPath>
<g id="surface20" clip-path="url(#clip11)">
<g clip-path="url(#clip12)" clip-rule="nonzero">
<path class="mat-chrome mat-chrome" style=" stroke:none;fill-rule:nonzero;fill:rgb(73.3%,75.3%,77.3%);fill-opacity:1;" d="M 387.980469 23.460938 L 0.820312 23.460938 L 0.820312 0.8125 L 376.488281 0.8125 C 385.6875 0.8125 387.980469 6.078125 387.980469 12.324219 Z M 387.980469 23.460938 "/>
</g>
</g>
</defs>
<g id="surface1">
<path class="mat-chrome mat-chrome" style=" stroke:none;fill-rule:nonzero;fill:rgb(73.3%,75.3%,77.3%);fill-opacity:1;" d="M 213.859375 574.019531 C 203.5 574.019531 191.179688 574.453125 185.539062 575.617188 L 184.042969 575.925781 C 174.949219 577.789062 168.941406 579.023438 163.609375 585.929688 C 155.804688 596.023438 157.484375 625.367188 159.667969 652.078125 C 160.148438 656.367188 160.660156 661.039062 161.199219 665.980469 C 164.46875 695.980469 168.539062 733.316406 172.585938 741.410156 C 177.667969 751.578125 184.230469 759.230469 191.066406 762.957031 C 198.398438 766.957031 259.828125 779 260.449219 779.121094 C 260.847656 779.214844 297.867188 787.863281 310.007812 789.546875 C 322.175781 791.238281 372.015625 789.277344 389.960938 785.792969 C 399.675781 783.90625 431.992188 777.222656 440.050781 770.402344 C 446.398438 765.035156 445.484375 760.113281 443.546875 755.597656 C 441.597656 751.042969 433.335938 747.429688 428.089844 746.316406 C 426.894531 746.0625 423.582031 745.460938 418.992188 744.625 C 401.410156 741.429688 368.683594 735.476562 363.726562 732.722656 C 363.222656 732.441406 362.648438 732.128906 362.011719 731.789062 C 354.828125 727.902344 339.875 719.820312 331.597656 704.695312 C 322.804688 688.628906 286.800781 621.554688 286.441406 620.878906 L 286.421875 620.839844 C 286.308594 620.601562 275.035156 596.792969 259.328125 586.101562 C 245.429688 576.636719 237.457031 575.589844 232.183594 574.898438 C 231.429688 574.800781 230.714844 574.707031 230.058594 574.597656 C 227.972656 574.25 221.441406 574.019531 213.859375 574.019531 M 325.003906 791.761719 C 318.289062 791.761719 312.851562 791.566406 309.785156 791.140625 C 297.574219 789.445312 260.484375 780.78125 260.109375 780.695312 C 257.597656 780.203125 197.84375 768.484375 190.296875 764.367188 C 183.175781 760.484375 176.375 752.585938 171.148438 742.128906 C 166.972656 733.777344 162.882812 696.28125 159.597656 666.15625 C 159.0625 661.210938 158.550781 656.542969 158.066406 652.234375 C 155.855469 625.199219 154.183594 595.496094 162.335938 584.945312 L 162.972656 585.4375 L 162.335938 584.945312 C 168.035156 577.570312 174.613281 576.21875 183.71875 574.351562 L 185.214844 574.042969 C 195.394531 571.9375 225.195312 572.160156 230.324219 573.011719 C 230.953125 573.117188 231.652344 573.207031 232.390625 573.308594 C 237.816406 574.019531 246.015625 575.09375 260.234375 584.773438 C 276.097656 595.574219 287.460938 619.289062 287.863281 620.136719 C 288.625 621.554688 324.265625 687.953125 333.007812 703.925781 C 341.058594 718.628906 355.726562 726.5625 362.777344 730.371094 C 363.417969 730.722656 364 731.035156 364.507812 731.316406 C 369.230469 733.941406 403.035156 740.089844 419.28125 743.042969 C 423.878906 743.882812 427.207031 744.488281 428.421875 744.746094 C 433.621094 745.847656 442.722656 749.597656 445.027344 754.964844 C 447.097656 759.804688 448.253906 765.570312 441.089844 771.628906 C 432.960938 778.507812 402.839844 784.929688 390.265625 787.371094 C 376.734375 789.996094 345.136719 791.761719 325.003906 791.761719 "/>
<path class="mat-chrome mat-chrome" style=" stroke:none;fill-rule:nonzero;fill:rgb(73.3%,75.3%,77.3%);fill-opacity:1;" d="M 173.0625 580.304688 L 173.503906 580.976562 C 169.121094 583.863281 165.46875 589.191406 163.746094 595.234375 C 162.105469 600.972656 162.390625 608.042969 163.261719 624.90625 C 164.128906 641.789062 171.171875 702.929688 174.023438 718.359375 C 177.160156 735.339844 179.800781 746.21875 189.976562 754.132812 C 198.378906 760.671875 215.359375 763.617188 227.757812 765.773438 C 231.023438 766.339844 233.839844 766.828125 236.171875 767.324219 C 239.179688 767.960938 243.15625 768.722656 247.367188 769.53125 C 259.183594 771.800781 273.890625 774.621094 281.097656 777.277344 C 290.417969 780.707031 310.746094 784.570312 321.382812 784.921875 C 322.21875 784.949219 323.144531 784.984375 324.15625 785.023438 C 335.734375 785.457031 357.289062 786.269531 382.976562 782.195312 C 415.957031 776.96875 428.191406 772.914062 432.546875 770.96875 C 438.867188 768.140625 440.160156 766.078125 440.628906 761.695312 C 441.023438 758.023438 440.160156 757.449219 436.960938 755.320312 C 436.460938 754.988281 435.917969 754.625 435.328125 754.214844 C 433.339844 752.839844 417.234375 749.285156 401.660156 745.851562 C 383.238281 741.785156 364.191406 737.585938 359.96875 735.289062 C 351.78125 730.839844 338.519531 721.429688 334.675781 714.445312 C 330.808594 707.414062 283.289062 622.589844 277.902344 613.378906 C 264.324219 591.867188 249.28125 580.460938 230.578125 577.507812 C 220.574219 575.75 178.296875 577.820312 173.503906 580.976562 Z M 340.6875 787 C 333.996094 787 328.371094 786.789062 324.09375 786.628906 C 323.085938 786.59375 322.164062 786.558594 321.328125 786.53125 C 310.566406 786.167969 289.980469 782.261719 280.542969 778.78125 C 273.457031 776.171875 258.824219 773.367188 247.066406 771.109375 C 242.847656 770.300781 238.863281 769.535156 235.839844 768.894531 C 233.535156 768.40625 230.730469 767.917969 227.484375 767.355469 C 214.917969 765.171875 197.710938 762.1875 188.988281 755.402344 C 177.597656 746.539062 175.09375 732.992188 172.445312 718.652344 C 169.585938 703.183594 162.527344 641.90625 161.65625 624.988281 C 160.832031 609.03125 160.421875 601.019531 162.199219 594.792969 C 164.054688 588.296875 167.855469 582.773438 172.621094 579.632812 C 178.085938 576.039062 221.316406 574.25 230.84375 575.921875 C 250.023438 578.949219 265.417969 590.589844 279.273438 612.542969 C 284.679688 621.785156 332.214844 706.636719 336.085938 713.671875 C 339.730469 720.296875 352.949219 729.648438 360.738281 733.878906 C 364.757812 736.066406 384.546875 740.429688 402.003906 744.28125 C 421.910156 748.671875 434.144531 751.445312 436.242188 752.894531 C 436.824219 753.300781 437.359375 753.65625 437.847656 753.980469 C 441.09375 756.140625 442.722656 757.226562 442.226562 761.867188 C 441.65625 767.1875 439.632812 769.558594 433.203125 772.433594 C 427.792969 774.855469 414.730469 778.789062 383.226562 783.78125 C 366.882812 786.375 352.207031 787 340.6875 787 "/>
<path class="mat-chrome mat-chrome" style=" stroke:none;fill-rule:nonzero;fill:rgb(73.3%,75.3%,77.3%);fill-opacity:1;" d="M 157.398438 610.953125 L 156.992188 609.398438 L 160.136719 608.578125 L 162.117188 608.578125 C 162.253906 608.574219 178.652344 608.007812 186.09375 607.78125 C 193.542969 607.554688 243.148438 603.578125 249.675781 602.996094 C 255.972656 602.433594 269.238281 600.734375 269.371094 600.71875 L 269.574219 602.308594 C 269.441406 602.328125 256.144531 604.03125 249.816406 604.59375 C 243.285156 605.179688 193.613281 609.160156 186.144531 609.386719 C 178.707031 609.613281 162.308594 610.179688 162.144531 610.183594 L 160.34375 610.183594 Z M 157.398438 610.953125 "/>
<path class="mat-chrome mat-chrome" style=" stroke:none;fill-rule:nonzero;fill:rgb(73.3%,75.3%,77.3%);fill-opacity:1;" d="M 157.34375 624.421875 L 156.941406 622.863281 L 160.136719 622.035156 L 163.085938 622.035156 C 163.347656 622.027344 191.316406 621.339844 201.433594 620.328125 C 204.664062 620.003906 213.390625 619.214844 223.492188 618.296875 C 244.558594 616.390625 276.390625 613.503906 278.042969 613.054688 L 278.464844 614.605469 C 276.8125 615.054688 252.65625 617.269531 223.636719 619.898438 C 213.539062 620.8125 204.816406 621.605469 201.59375 621.925781 C 191.417969 622.941406 163.386719 623.632812 163.105469 623.640625 L 160.34375 623.640625 Z M 157.34375 624.421875 "/>
<path class="mat-chrome mat-chrome" style=" stroke:none;fill-rule:nonzero;fill:rgb(73.3%,75.3%,77.3%);fill-opacity:1;" d="M 158.519531 638.683594 L 158.300781 637.09375 L 161.75 636.628906 L 163.976562 636.628906 C 164.835938 636.578125 187.617188 635.246094 194.722656 634.695312 C 202.914062 634.054688 282.757812 626.359375 285.699219 625.269531 L 286.324219 626.75 C 283.378906 628.007812 199.546875 635.925781 194.847656 636.292969 C 187.625 636.859375 164.28125 638.222656 164.042969 638.234375 L 163.996094 638.238281 L 161.804688 638.238281 Z M 158.519531 638.683594 "/>
<path class="mat-chrome mat-chrome" style=" stroke:none;fill-rule:nonzero;fill:rgb(73.3%,75.3%,77.3%);fill-opacity:1;" d="M 159.035156 652.929688 L 158.695312 651.359375 L 163 650.425781 L 165.367188 650.425781 C 165.566406 650.421875 187.484375 649.917969 198.121094 648.777344 C 199.859375 648.59375 203.421875 648.214844 208.183594 647.714844 C 230.578125 645.347656 290.0625 639.066406 292.164062 638.488281 L 292.625 640.027344 C 290.875 640.550781 249.042969 645.015625 208.351562 649.3125 C 203.589844 649.8125 200.03125 650.191406 198.292969 650.375 C 187.585938 651.523438 165.605469 652.027344 165.382812 652.03125 L 163.171875 652.03125 Z M 159.035156 652.929688 "/>
<path class="mat-chrome mat-chrome" style=" stroke:none;fill-rule:nonzero;fill:rgb(73.3%,75.3%,77.3%);fill-opacity:1;" d="M 173.707031 665.414062 C 169.863281 665.414062 166.851562 665.261719 166.808594 665.261719 L 166.769531 665.257812 L 163.425781 664.925781 L 160.363281 665.402344 L 160.117188 663.816406 L 163.378906 663.304688 L 166.90625 663.65625 C 167.304688 663.675781 173.808594 663.980469 179.804688 663.65625 C 180.460938 663.621094 181.414062 663.570312 182.609375 663.511719 C 192.996094 662.984375 220.582031 661.582031 232.269531 659.449219 C 238.46875 658.316406 252.921875 656.574219 266.902344 654.890625 C 281.917969 653.078125 297.445312 651.207031 299.152344 650.488281 L 299.773438 651.972656 C 297.988281 652.722656 286.238281 654.175781 267.09375 656.484375 C 253.140625 658.167969 238.710938 659.90625 232.558594 661.027344 C 220.769531 663.183594 193.105469 664.585938 182.691406 665.117188 C 181.5 665.175781 180.546875 665.222656 179.890625 665.261719 C 177.800781 665.375 175.648438 665.414062 173.707031 665.414062 "/>
<path class="mat-chrome mat-chrome" style=" stroke:none;fill-rule:nonzero;fill:rgb(73.3%,75.3%,77.3%);fill-opacity:1;" d="M 177.820312 680.363281 C 173.519531 680.363281 168.738281 680.3125 168.664062 680.3125 L 168.582031 680.308594 L 165.925781 680.003906 L 161.953125 680.359375 L 161.808594 678.757812 L 165.945312 678.386719 L 168.722656 678.707031 C 169.464844 678.714844 179.65625 678.816406 183.242188 678.707031 C 186.941406 678.59375 228.660156 675.292969 239.6875 673.359375 C 250.632812 671.441406 305.859375 663.402344 306.417969 663.320312 L 306.648438 664.910156 C 306.089844 664.992188 250.886719 673.027344 239.964844 674.941406 C 228.886719 676.882812 187.003906 680.199219 183.292969 680.3125 C 182.039062 680.351562 179.992188 680.363281 177.820312 680.363281 "/>
<path class="mat-chrome mat-chrome" style=" stroke:none;fill-rule:nonzero;fill:rgb(73.3%,75.3%,77.3%);fill-opacity:1;" d="M 178.054688 693.714844 C 173.640625 693.714844 170.449219 693.351562 170.089844 693.308594 L 167.710938 693.199219 L 163.5 693.710938 L 163.304688 692.117188 L 167.648438 691.589844 L 170.253906 691.710938 C 170.328125 691.71875 177.5625 692.601562 185.6875 691.710938 C 189.121094 691.335938 195.371094 690.976562 201.988281 690.597656 C 211.457031 690.054688 222.183594 689.4375 226.921875 688.636719 C 231.699219 687.828125 259.671875 683.519531 282.148438 680.058594 C 297.84375 677.640625 311.394531 675.550781 312.898438 675.296875 L 313.167969 676.878906 C 311.65625 677.136719 298.09375 679.226562 282.394531 681.644531 C 259.921875 685.109375 231.953125 689.414062 227.1875 690.222656 C 222.367188 691.035156 211.589844 691.65625 202.082031 692.199219 C 195.484375 692.578125 189.253906 692.9375 185.863281 693.308594 C 183.078125 693.613281 180.394531 693.714844 178.054688 693.714844 "/>
<path class="mat-chrome mat-chrome" style=" stroke:none;fill-rule:nonzero;fill:rgb(73.3%,75.3%,77.3%);fill-opacity:1;" d="M 181.765625 707.441406 C 177.285156 707.441406 173.265625 707.242188 171.097656 706.691406 L 171.019531 706.667969 L 169.503906 706.105469 L 166.058594 706.644531 L 165.8125 705.054688 L 169.667969 704.453125 L 171.535156 705.144531 C 176.492188 706.378906 192.589844 705.695312 200.132812 705.046875 C 200.957031 704.980469 201.867188 704.902344 202.855469 704.820312 C 210.578125 704.175781 223.5 703.097656 235.941406 701.179688 C 241.496094 700.320312 255.511719 697.902344 270.351562 695.339844 C 299.011719 690.398438 318.015625 687.144531 319.964844 687.144531 C 319.988281 687.144531 320.003906 687.144531 320.019531 687.144531 L 319.953125 688.75 C 319.945312 688.75 319.933594 688.75 319.921875 688.75 C 318.015625 688.75 291.753906 693.28125 270.625 696.925781 C 255.777344 699.488281 241.753906 701.90625 236.183594 702.765625 C 223.691406 704.695312 210.730469 705.777344 202.988281 706.421875 C 202.003906 706.503906 201.09375 706.582031 200.269531 706.652344 C 196.152344 707.003906 188.445312 707.4375 181.765625 707.441406 "/>
<path class="mat-chrome mat-chrome" style=" stroke:none;fill-rule:nonzero;fill:rgb(73.3%,75.3%,77.3%);fill-opacity:1;" d="M 185.230469 721.144531 C 179.3125 721.144531 174.601562 720.84375 173.191406 720.367188 L 171.285156 719.796875 C 170.761719 719.9375 169.398438 720.277344 167.816406 720.550781 L 167.542969 718.96875 C 169.449219 718.640625 171.066406 718.191406 171.082031 718.1875 L 171.304688 718.125 L 173.699219 718.839844 C 176.328125 719.753906 196.363281 720.070312 209.242188 717.828125 C 211.765625 717.390625 216.992188 716.691406 224.226562 715.722656 C 233.296875 714.507812 245.71875 712.847656 258.519531 710.914062 C 286.4375 706.691406 318.542969 701.101562 325.886719 698.589844 L 326.40625 700.109375 C 318.972656 702.652344 286.75 708.269531 258.757812 712.5 C 245.945312 714.4375 233.515625 716.101562 224.4375 717.316406 C 217.496094 718.246094 212.011719 718.980469 209.519531 719.414062 C 202.398438 720.652344 192.820312 721.144531 185.230469 721.144531 "/>
<path class="mat-chrome mat-chrome" style=" stroke:none;fill-rule:nonzero;fill:rgb(73.3%,75.3%,77.3%);fill-opacity:1;" d="M 186.09375 733.355469 C 181.109375 733.355469 177.222656 733.117188 175.742188 732.515625 C 174.40625 732.136719 170.753906 731.335938 169.203125 731.953125 L 168.605469 730.460938 C 170.964844 729.519531 175.695312 730.828125 176.226562 730.980469 L 176.320312 731.015625 C 179.898438 732.542969 204.285156 731.441406 218.300781 729.910156 C 232.4375 728.367188 255.054688 724.769531 263.742188 723.191406 C 272.585938 721.582031 328.582031 707.9375 330.933594 707.246094 L 331.386719 708.789062 C 328.035156 709.773438 272.789062 723.175781 264.03125 724.769531 C 255.320312 726.355469 232.652344 729.957031 218.476562 731.503906 C 210.101562 732.421875 195.949219 733.355469 186.09375 733.355469 "/>
<path class="mat-chrome mat-chrome" style=" stroke:none;fill-rule:nonzero;fill:rgb(73.3%,75.3%,77.3%);fill-opacity:1;" d="M 213.355469 749.082031 C 207.898438 749.082031 201.785156 748.605469 197.042969 748.238281 C 196.144531 748.167969 195.289062 748.101562 194.496094 748.042969 C 188.859375 747.625 184.515625 745.929688 181.027344 744.5625 C 180.632812 744.410156 180.253906 744.265625 179.890625 744.125 L 179.75 744.070312 L 175.234375 740 C 175.121094 739.925781 174.042969 739.328125 172.304688 740.980469 L 171.199219 739.816406 C 174.0625 737.089844 176.152344 738.675781 176.238281 738.742188 L 176.28125 738.777344 L 180.605469 742.675781 C 180.929688 742.800781 181.265625 742.933594 181.609375 743.066406 C 185 744.394531 189.21875 746.039062 194.617188 746.441406 C 195.410156 746.5 196.265625 746.566406 197.167969 746.636719 C 203.195312 747.105469 211.453125 747.746094 217.652344 747.351562 C 224.53125 746.914062 245.171875 744.433594 252.867188 742.59375 C 259.5625 740.984375 320.742188 724.355469 336.167969 716.761719 L 336.875 718.203125 C 321.34375 725.851562 259.957031 742.542969 253.242188 744.152344 C 245.476562 746.015625 224.679688 748.515625 217.753906 748.957031 C 216.371094 749.042969 214.886719 749.082031 213.355469 749.082031 "/>
<path class="mat-chrome mat-chrome" style=" stroke:none;fill-rule:nonzero;fill:rgb(73.3%,75.3%,77.3%);fill-opacity:1;" d="M 222.457031 762.785156 C 211.757812 762.785156 198.988281 760.4375 193.140625 758.046875 L 193.75 756.558594 C 199.835938 759.050781 213.648438 761.492188 224.519531 761.148438 C 233.121094 760.878906 234.679688 760.601562 242.152344 759.273438 C 244.121094 758.925781 246.570312 758.492188 249.65625 757.964844 C 260.617188 756.101562 275.8125 750.648438 286.910156 746.671875 C 290.632812 745.332031 293.851562 744.179688 296.25 743.398438 C 305.277344 740.460938 332.167969 726.949219 340.511719 721.152344 L 341.425781 722.472656 C 332.804688 728.460938 306.082031 741.890625 296.746094 744.925781 C 294.371094 745.699219 291.164062 746.851562 287.453125 748.183594 C 276.300781 752.183594 261.027344 757.664062 249.925781 759.550781 C 246.847656 760.074219 244.398438 760.507812 242.433594 760.855469 C 234.863281 762.203125 233.289062 762.480469 224.570312 762.753906 C 223.878906 762.773438 223.171875 762.785156 222.457031 762.785156 "/>
<path class="mat-chrome mat-chrome" style=" stroke:none;fill-rule:nonzero;fill:rgb(73.3%,75.3%,77.3%);fill-opacity:1;" d="M 247.601562 777.199219 C 247.507812 777.011719 247.074219 775.96875 247.53125 773.65625 C 248.054688 771.007812 250.90625 770.332031 251.027344 770.304688 L 251.066406 770.296875 L 253.445312 769.886719 C 265.5 767.804688 269.5625 767.101562 278.171875 763.492188 C 287.183594 759.707031 298.054688 754.535156 308.78125 748.925781 C 319.066406 743.546875 341.554688 728.523438 344.695312 724.933594 L 345.90625 725.992188 C 342.609375 729.757812 320.171875 744.78125 309.527344 750.347656 C 298.761719 755.976562 287.84375 761.171875 278.792969 764.972656 C 270.019531 768.65625 265.910156 769.367188 253.71875 771.46875 L 251.367188 771.875 C 251.171875 771.921875 249.417969 772.40625 249.109375 773.964844 C 248.753906 775.757812 249.050781 776.507812 249.054688 776.511719 Z M 247.601562 777.199219 "/>
<path class="mat-chrome mat-chrome" style=" stroke:none;fill-rule:nonzero;fill:rgb(73.3%,75.3%,77.3%);fill-opacity:1;" d="M 259.921875 779.523438 C 259.703125 777.929688 259.878906 775.675781 263.921875 774.519531 C 267.417969 773.519531 274.691406 774.726562 275.855469 774.929688 C 283.078125 773.550781 300.703125 765.9375 312.015625 758.429688 C 323.699219 750.679688 349.308594 728.609375 349.566406 728.386719 L 350.617188 729.605469 C 350.359375 729.828125 324.671875 751.964844 312.90625 759.769531 C 301.363281 767.425781 283.28125 775.203125 276.003906 776.539062 L 275.859375 776.566406 L 275.714844 776.539062 C 275.636719 776.523438 267.734375 775.101562 264.363281 776.066406 C 261.191406 776.972656 261.386719 778.375 261.511719 779.300781 Z M 259.921875 779.523438 "/>
<path class="mat-chrome mat-chrome" style=" stroke:none;fill-rule:nonzero;fill:rgb(73.3%,75.3%,77.3%);fill-opacity:1;" d="M 276.011719 783.941406 C 275.984375 783.875 275.40625 782.261719 276.152344 780.734375 C 276.628906 779.753906 277.511719 779.050781 278.777344 778.648438 C 281.914062 777.644531 284.941406 778.488281 285.832031 778.785156 C 294.101562 776.632812 302.335938 772.792969 308.964844 769.699219 L 309.042969 769.660156 C 315.746094 766.535156 323.386719 760.46875 330.644531 754.378906 C 337.597656 748.550781 353.449219 731.472656 353.605469 731.300781 L 354.785156 732.394531 C 354.625 732.566406 338.707031 749.71875 331.679688 755.613281 C 324.335938 761.769531 316.59375 767.910156 309.722656 771.117188 L 309.644531 771.15625 C 302.890625 774.304688 294.488281 778.226562 285.996094 780.40625 L 285.742188 780.46875 L 285.503906 780.375 C 285.472656 780.363281 282.363281 779.1875 279.269531 780.175781 C 278.4375 780.445312 277.875 780.867188 277.597656 781.4375 C 277.15625 782.339844 277.515625 783.375 277.519531 783.382812 Z M 276.011719 783.941406 "/>
<path class="mat-chrome mat-chrome" style=" stroke:none;fill-rule:nonzero;fill:rgb(73.3%,75.3%,77.3%);fill-opacity:1;" d="M 313.375 775.875 L 312.574219 774.480469 C 317.667969 771.554688 322.042969 768.6875 329.898438 763.121094 C 337.941406 757.425781 358.292969 734.398438 358.496094 734.167969 L 359.703125 735.230469 C 358.859375 736.183594 339.019531 758.628906 330.828125 764.429688 C 322.921875 770.03125 318.519531 772.917969 313.375 775.875 "/>
<path class="mat-chrome mat-chrome" style=" stroke:none;fill-rule:nonzero;fill:rgb(73.3%,75.3%,77.3%);fill-opacity:1;" d="M 323.996094 775.898438 L 323.277344 774.460938 C 324.261719 773.96875 325.167969 773.363281 326.546875 772.449219 C 328.320312 771.269531 330.746094 769.652344 335.085938 767.078125 C 342.269531 762.804688 346.816406 758.09375 350.472656 754.304688 C 350.765625 754 351.058594 753.703125 351.339844 753.410156 C 354.128906 750.535156 365.949219 738.527344 368.4375 736.75 C 370.777344 735.085938 372.210938 734.539062 372.273438 734.515625 L 372.835938 736.023438 L 372.554688 735.269531 L 372.835938 736.019531 C 372.824219 736.027344 371.515625 736.53125 369.371094 738.0625 C 367.152344 739.644531 356.222656 750.6875 352.492188 754.527344 C 352.210938 754.820312 351.921875 755.117188 351.628906 755.421875 C 347.90625 759.277344 343.277344 764.078125 335.90625 768.457031 C 331.605469 771.011719 329.195312 772.617188 327.4375 773.785156 C 326.011719 774.734375 325.070312 775.359375 323.996094 775.898438 "/>
<path class="mat-chrome mat-chrome" style=" stroke:none;fill-rule:nonzero;fill:rgb(73.3%,75.3%,77.3%);fill-opacity:1;" d="M 334.882812 774.5 L 334.054688 773.121094 C 334.160156 773.058594 344.632812 766.800781 351.515625 762.851562 C 357.046875 759.675781 362.152344 754.804688 366.253906 750.886719 C 367.210938 749.976562 368.113281 749.113281 368.933594 748.359375 C 371.460938 746.035156 374.015625 743.84375 376.070312 742.078125 C 377.414062 740.925781 378.472656 740.015625 379.046875 739.476562 C 380.636719 737.984375 382.214844 737.582031 382.285156 737.566406 L 382.667969 739.128906 L 382.472656 738.347656 L 382.671875 739.128906 C 382.65625 739.128906 381.414062 739.460938 380.148438 740.648438 C 379.546875 741.210938 378.472656 742.132812 377.117188 743.296875 C 375.074219 745.054688 372.527344 747.238281 370.019531 749.542969 C 369.210938 750.285156 368.316406 751.144531 367.363281 752.050781 C 363.199219 756.023438 358.015625 760.972656 352.316406 764.246094 C 345.445312 768.1875 334.988281 774.4375 334.882812 774.5 "/>
<path class="mat-chrome mat-chrome" style=" stroke:none;fill-rule:nonzero;fill:rgb(73.3%,75.3%,77.3%);fill-opacity:1;" d="M 345.226562 773.605469 L 344.464844 772.191406 C 344.617188 772.109375 359.90625 763.839844 364.523438 761.28125 C 368.171875 759.257812 372.777344 755.316406 376.480469 752.148438 C 377.457031 751.3125 378.378906 750.519531 379.222656 749.816406 C 380.703125 748.585938 382.296875 747.332031 383.839844 746.121094 C 386.289062 744.199219 388.820312 742.210938 389.335938 741.449219 C 390.46875 739.769531 392.851562 739.710938 392.953125 739.710938 L 392.980469 741.316406 C 392.964844 741.316406 391.328125 741.367188 390.667969 742.347656 C 390.042969 743.273438 388.042969 744.867188 384.832031 747.386719 C 383.296875 748.589844 381.714844 749.832031 380.253906 751.050781 C 379.417969 751.75 378.496094 752.535156 377.523438 753.367188 C 373.769531 756.582031 369.09375 760.585938 365.304688 762.6875 C 360.679688 765.25 345.382812 773.523438 345.226562 773.605469 "/>
<path class="mat-chrome mat-chrome" style=" stroke:none;fill-rule:nonzero;fill:rgb(73.3%,75.3%,77.3%);fill-opacity:1;" d="M 356.648438 772.429688 L 356.304688 770.859375 C 361.886719 769.628906 384.980469 755.355469 389.457031 751.214844 C 392.324219 748.558594 395.085938 747.035156 397.101562 745.925781 C 398.328125 745.246094 399.300781 744.710938 399.851562 744.175781 C 401.609375 742.476562 403.941406 741.820312 404.039062 741.792969 L 404.46875 743.339844 L 404.253906 742.566406 L 404.46875 743.339844 C 404.449219 743.347656 402.425781 743.921875 400.96875 745.328125 C 400.261719 746.015625 399.210938 746.597656 397.878906 747.332031 C 395.824219 748.464844 393.273438 749.871094 390.546875 752.394531 C 385.863281 756.722656 362.570312 771.125 356.648438 772.429688 "/>
<path class="mat-chrome mat-chrome" style=" stroke:none;fill-rule:nonzero;fill:rgb(73.3%,75.3%,77.3%);fill-opacity:1;" d="M 374.40625 769.164062 L 373.667969 767.738281 C 373.859375 767.640625 392.84375 757.800781 397.214844 755.058594 C 401.925781 752.097656 408.722656 747.347656 409.777344 746.359375 C 411.019531 745.195312 414.257812 743.621094 414.394531 743.554688 L 415.09375 745 C 414.21875 745.425781 411.757812 746.703125 410.875 747.53125 C 409.652344 748.675781 402.59375 753.574219 398.070312 756.417969 C 393.644531 759.195312 375.1875 768.757812 374.40625 769.164062 "/>
<path class="mat-chrome mat-chrome" style=" stroke:none;fill-rule:nonzero;fill:rgb(73.3%,75.3%,77.3%);fill-opacity:1;" d="M 388.207031 766.582031 L 387.234375 765.304688 C 389.21875 763.789062 394.792969 761.464844 399.710938 759.414062 C 400.914062 758.914062 402.046875 758.4375 403.023438 758.019531 C 406.714844 756.4375 413.527344 752.089844 417.1875 749.753906 C 418.21875 749.09375 418.964844 748.613281 419.347656 748.390625 C 421.082031 747.359375 424.546875 745.882812 424.691406 745.816406 L 425.320312 747.296875 C 425.289062 747.3125 421.808594 748.796875 420.167969 749.769531 C 419.808594 749.984375 419.035156 750.480469 418.050781 751.105469 C 414.351562 753.46875 407.46875 757.863281 403.65625 759.496094 C 402.675781 759.917969 401.539062 760.394531 400.328125 760.894531 C 395.738281 762.808594 390.027344 765.191406 388.207031 766.582031 "/>
<path class="mat-chrome mat-chrome" style=" stroke:none;fill-rule:nonzero;fill:rgb(73.3%,75.3%,77.3%);fill-opacity:1;" d="M 399.871094 765.664062 L 399.289062 764.167969 C 403.867188 762.378906 427.582031 751.894531 429.261719 750.832031 C 431.039062 749.703125 434.515625 748.472656 434.660156 748.421875 L 435.195312 749.9375 C 435.160156 749.949219 431.746094 751.15625 430.121094 752.1875 C 428.210938 753.402344 404.152344 763.992188 399.871094 765.664062 "/>
<path class="mat-chrome mat-chrome" style=" stroke:none;fill-rule:nonzero;fill:rgb(73.3%,75.3%,77.3%);fill-opacity:1;" d="M 408.035156 765.519531 L 407.316406 764.082031 C 409.503906 762.988281 426.164062 757.730469 430.332031 756.945312 C 434.457031 756.164062 440.78125 754.191406 440.84375 754.171875 L 441.324219 755.707031 C 441.0625 755.789062 434.847656 757.722656 430.628906 758.523438 C 426.355469 759.332031 409.875 764.601562 408.035156 765.519531 "/>
<path class="mat-chrome mat-chrome" style=" stroke:none;fill-rule:nonzero;fill:rgb(73.3%,75.3%,77.3%);fill-opacity:1;" d="M 298.015625 788.738281 C 297.851562 788.449219 297.761719 787.941406 297.984375 787.382812 C 298.390625 786.367188 299.640625 785.546875 301.808594 784.875 C 305.925781 783.59375 320.128906 781.792969 320.941406 781.6875 L 389.167969 770.296875 C 389.890625 770.144531 411.410156 765.578125 417.640625 764.132812 C 424.007812 762.65625 440.644531 761.046875 441.351562 760.980469 L 441.503906 762.582031 C 441.332031 762.597656 424.265625 764.246094 418.003906 765.699219 C 411.683594 767.167969 389.703125 771.828125 389.484375 771.875 L 389.449219 771.878906 L 321.160156 783.28125 C 321.011719 783.300781 306.300781 785.160156 302.289062 786.410156 C 299.890625 787.152344 299.445312 787.894531 299.457031 788.050781 C 299.457031 788.050781 299.457031 788.023438 299.417969 787.957031 Z M 298.015625 788.738281 "/>
<path class="mat-chrome mat-chrome" style=" stroke:none;fill-rule:nonzero;fill:rgb(73.3%,75.3%,77.3%);fill-opacity:1;" d="M 436.835938 773.960938 L 435.257812 773.660156 C 435.46875 772.542969 434.648438 770.78125 434.269531 770.113281 C 430.839844 766.144531 428.28125 764.964844 419.992188 763.511719 C 415.328125 762.695312 406.308594 763.378906 396.757812 764.101562 C 389.695312 764.636719 382.386719 765.195312 376.484375 765.148438 C 372.953125 765.125 368.859375 765.1875 364.523438 765.25 C 352.03125 765.4375 336.492188 765.671875 324.152344 763.945312 C 307.5625 761.625 295.625 746.214844 291.648438 736.425781 C 287.867188 727.113281 285.773438 714.03125 283.785156 700.320312 C 281.929688 687.492188 278.054688 665.363281 275.238281 650.238281 C 272.550781 635.792969 262.484375 598.988281 259.957031 591.410156 L 261.480469 590.902344 C 264.015625 598.507812 274.121094 635.441406 276.820312 649.941406 C 279.636719 665.085938 283.519531 687.238281 285.378906 700.089844 C 287.347656 713.699219 289.421875 726.675781 293.136719 735.820312 C 296.972656 745.265625 308.457031 760.125 324.375 762.351562 C 336.589844 764.0625 352.0625 763.828125 364.496094 763.644531 C 368.84375 763.578125 372.949219 763.519531 376.492188 763.542969 C 382.324219 763.585938 389.605469 763.03125 396.636719 762.5 C 406.289062 761.769531 415.40625 761.078125 420.273438 761.929688 C 428.421875 763.359375 431.589844 764.535156 435.535156 769.125 L 435.621094 769.242188 C 435.785156 769.519531 437.203125 772.007812 436.835938 773.960938 "/>
<path class="mat-chrome mat-chrome" style=" stroke:none;fill-rule:nonzero;fill:rgb(73.3%,75.3%,77.3%);fill-opacity:1;" d="M 429.449219 776.902344 L 427.847656 776.785156 C 427.910156 775.929688 427.292969 774.234375 426.871094 773.324219 C 424.375 769.632812 421.75 768.589844 417.414062 766.871094 L 416.957031 766.6875 C 414.039062 765.53125 413.082031 765.566406 410.527344 765.671875 C 409.234375 765.722656 407.625 765.785156 405.230469 765.71875 C 401.113281 765.605469 394.839844 766.320312 387.578125 767.144531 C 382.429688 767.730469 376.597656 768.390625 370.847656 768.824219 L 369.972656 768.890625 C 355.960938 769.941406 326.8125 772.132812 315.339844 770.445312 C 303.929688 768.765625 294.699219 763.46875 287.125 754.25 C 279.777344 745.308594 278.402344 740.050781 275.082031 727.347656 C 272.703125 718.246094 272.101562 713.6875 271.007812 705.410156 C 270.535156 701.839844 269.945312 697.394531 269.078125 691.601562 C 266.289062 673.003906 260.027344 643.175781 258.828125 638.308594 C 258.335938 636.300781 257.042969 631.015625 255.523438 624.8125 C 253.410156 616.183594 250.863281 605.777344 249.421875 599.910156 C 247.726562 593.015625 246.292969 589.546875 244.773438 585.871094 C 244.09375 584.230469 243.390625 582.535156 242.65625 580.496094 L 244.167969 579.953125 C 244.890625 581.953125 245.585938 583.632812 246.257812 585.257812 C 247.800781 588.988281 249.257812 592.511719 250.984375 599.527344 C 252.425781 605.394531 254.972656 615.800781 257.082031 624.429688 C 258.601562 630.632812 259.898438 635.917969 260.390625 637.925781 C 261.589844 642.804688 267.871094 672.71875 270.667969 691.363281 C 271.539062 697.167969 272.125 701.621094 272.597656 705.199219 C 273.683594 713.414062 274.28125 717.9375 276.636719 726.941406 C 279.988281 739.761719 281.242188 744.5625 288.367188 753.230469 C 295.675781 762.125 304.574219 767.238281 315.570312 768.851562 C 326.871094 770.515625 355.902344 768.335938 369.851562 767.289062 L 370.726562 767.222656 C 376.449219 766.792969 382.265625 766.132812 387.394531 765.546875 C 394.71875 764.714844 401.050781 763.996094 405.273438 764.113281 C 407.617188 764.175781 409.195312 764.117188 410.464844 764.0625 C 413.109375 763.957031 414.316406 763.910156 417.550781 765.195312 L 418.007812 765.378906 C 422.332031 767.09375 425.457031 768.332031 428.238281 772.476562 L 428.300781 772.585938 C 428.429688 772.859375 429.566406 775.324219 429.449219 776.902344 "/>
<path class="mat-chrome mat-chrome" style=" stroke:none;fill-rule:nonzero;fill:rgb(73.3%,75.3%,77.3%);fill-opacity:1;" d="M 421.386719 779.554688 L 419.804688 779.269531 C 419.976562 778.328125 419.09375 776.683594 418.773438 776.183594 L 418.703125 776.042969 C 418.101562 774.535156 412.773438 770.664062 409.613281 769.179688 C 407.503906 768.1875 406.621094 768.183594 401.714844 768.175781 C 400.324219 768.171875 398.589844 768.167969 396.433594 768.144531 C 389.597656 768.058594 374.621094 770.074219 363.6875 771.550781 C 359.121094 772.164062 355.175781 772.699219 352.910156 772.929688 C 344.871094 773.742188 322.21875 775.839844 317.960938 775.980469 C 313.511719 776.128906 298.746094 774.675781 292.128906 772.640625 C 285.613281 770.636719 277.53125 764.285156 272.46875 757.203125 C 268.628906 751.824219 265.1875 743.011719 262.25 731.011719 C 260.207031 722.660156 256.832031 702.15625 255.480469 693.03125 C 254.636719 687.347656 251.875 673.769531 249.652344 662.859375 C 248.464844 657.027344 247.4375 651.988281 246.847656 648.871094 C 245.085938 639.570312 237.355469 605.875 234.203125 594.199219 C 231.089844 582.667969 228.90625 576.898438 228.882812 576.84375 L 230.382812 576.269531 C 230.40625 576.328125 232.617188 582.15625 235.753906 593.777344 C 238.914062 605.480469 246.660156 639.246094 248.425781 648.574219 C 249.015625 651.679688 250.039062 656.710938 251.226562 662.539062 C 253.453125 673.46875 256.222656 687.070312 257.070312 692.796875 C 258.375 701.609375 261.804688 722.433594 263.8125 730.628906 C 266.660156 742.265625 270.105469 751.128906 273.777344 756.269531 C 278.652344 763.09375 286.390625 769.195312 292.601562 771.105469 C 299.082031 773.097656 313.542969 774.519531 317.910156 774.375 C 322.132812 774.234375 344.722656 772.140625 352.746094 771.328125 C 354.988281 771.101562 358.921875 770.570312 363.472656 769.957031 C 374.453125 768.476562 389.480469 766.441406 396.453125 766.535156 C 398.601562 766.5625 400.328125 766.566406 401.71875 766.570312 C 406.804688 766.578125 407.867188 766.578125 410.296875 767.722656 C 412.835938 768.917969 419.125 773.011719 420.164062 775.375 C 420.441406 775.820312 421.683594 777.925781 421.386719 779.554688 "/>
<path class="mat-chrome mat-chrome" style=" stroke:none;fill-rule:nonzero;fill:rgb(73.3%,75.3%,77.3%);fill-opacity:1;" d="M 410.984375 782.113281 L 409.382812 782.023438 C 409.484375 780.222656 408.617188 778.003906 408.609375 777.980469 C 406.640625 772.710938 398.914062 770.964844 398.835938 770.945312 L 398.683594 770.914062 L 398.570312 770.835938 C 398.378906 770.730469 395.828125 769.507812 384.621094 770.449219 C 378.261719 770.980469 368.820312 772.234375 359.691406 773.441406 C 351.351562 774.546875 342.730469 775.6875 336.597656 776.261719 C 334.292969 776.480469 331.9375 776.710938 329.574219 776.9375 C 318.875 777.980469 307.8125 779.054688 300.472656 778.917969 C 291.476562 778.746094 287.148438 777.769531 281.667969 776.53125 C 276 775.253906 268.710938 769.457031 265.449219 766.101562 C 261.953125 762.511719 257.265625 755.691406 254.664062 748.550781 C 251.902344 740.964844 249.269531 727.953125 247.53125 718.828125 L 247.039062 716.238281 C 245.132812 706.253906 241.945312 689.546875 240.800781 682.207031 C 240.117188 677.835938 238.796875 671.277344 237.515625 664.933594 C 236.433594 659.5625 235.410156 654.484375 234.785156 650.824219 C 233.949219 645.910156 231.617188 636.003906 229.742188 628.046875 C 228.5625 623.03125 227.542969 618.699219 227.179688 616.804688 C 226.191406 611.679688 222.515625 595.128906 220.871094 589.867188 C 219.160156 584.394531 217.53125 579.863281 216.027344 576.390625 L 217.5 575.75 C 219.027344 579.273438 220.679688 583.863281 222.40625 589.386719 C 224.179688 595.070312 227.875 611.933594 228.757812 616.5 C 229.117188 618.363281 230.132812 622.679688 231.308594 627.675781 C 233.1875 635.660156 235.527344 645.589844 236.371094 650.554688 C 236.988281 654.191406 238.011719 659.257812 239.09375 664.617188 C 240.375 670.976562 241.699219 677.554688 242.386719 681.957031 C 243.527344 689.273438 246.714844 705.964844 248.617188 715.9375 L 249.109375 718.527344 C 250.839844 727.597656 253.449219 740.523438 256.175781 748.003906 C 258.691406 754.917969 263.226562 761.515625 266.601562 764.980469 C 269.964844 768.441406 276.976562 773.828125 282.023438 774.964844 C 287.621094 776.226562 291.671875 777.140625 300.503906 777.3125 C 307.75 777.457031 318.765625 776.378906 329.417969 775.339844 C 331.78125 775.109375 334.140625 774.878906 336.445312 774.664062 C 342.550781 774.09375 351.15625 772.953125 359.480469 771.847656 C 368.628906 770.636719 378.085938 769.382812 384.488281 768.847656 C 395.339844 767.9375 398.546875 769.03125 399.292969 769.402344 C 400.363281 769.65625 407.960938 771.644531 410.109375 777.40625 C 410.144531 777.496094 411.109375 779.957031 410.984375 782.113281 "/>
<path class="mat-chrome mat-chrome" style=" stroke:none;fill-rule:nonzero;fill:rgb(73.3%,75.3%,77.3%);fill-opacity:1;" d="M 263.378906 774.339844 C 259.664062 773.035156 258.660156 772.132812 257.277344 770.886719 C 256.710938 770.378906 256.066406 769.800781 255.113281 769.097656 C 251.660156 766.550781 246.351562 757.582031 244.917969 754.601562 C 243.503906 751.664062 241.070312 743.328125 239.902344 739.320312 L 239.683594 738.574219 C 238.753906 735.40625 235.507812 717.964844 234.285156 711.398438 L 233.933594 709.503906 C 233.207031 705.621094 224.351562 659.039062 223.589844 655.476562 C 222.828125 651.925781 214.355469 612.941406 214.269531 612.546875 C 214.230469 612.355469 210.734375 594.777344 207.878906 586.203125 C 205.222656 578.234375 204.453125 577.101562 204.421875 577.058594 C 204.460938 577.113281 204.484375 577.128906 204.484375 577.128906 L 205.609375 575.980469 C 206.132812 576.492188 207.515625 580.035156 209.402344 585.695312 C 212.292969 594.367188 215.804688 612.042969 215.839844 612.21875 C 215.925781 612.597656 224.398438 651.585938 225.160156 655.140625 C 225.925781 658.710938 234.785156 705.324219 235.511719 709.207031 L 235.867188 711.105469 C 237.085938 717.648438 240.320312 735.035156 241.222656 738.121094 L 241.441406 738.871094 C 242.601562 742.835938 245.007812 751.085938 246.367188 753.90625 C 247.871094 757.03125 252.988281 765.535156 256.066406 767.804688 C 257.082031 768.554688 257.757812 769.15625 258.351562 769.691406 C 259.644531 770.855469 260.5 771.625 263.910156 772.824219 Z M 263.378906 774.339844 "/>
<path class="mat-chrome mat-chrome" style=" stroke:none;fill-rule:nonzero;fill:rgb(73.3%,75.3%,77.3%);fill-opacity:1;" d="M 401.980469 784.074219 L 400.371094 784.074219 C 400.371094 782.144531 399.019531 780.753906 399.007812 780.738281 L 398.933594 780.664062 L 398.878906 780.570312 C 398.855469 780.527344 396.308594 776.101562 392.652344 774.550781 C 388.957031 772.980469 386.308594 772.042969 378.613281 772.445312 L 378.527344 770.839844 C 386.410156 770.425781 389.363281 771.40625 393.28125 773.070312 C 397.191406 774.730469 399.828125 779.011719 400.230469 779.695312 C 400.582031 780.082031 401.980469 781.769531 401.980469 784.074219 "/>
<path class="mat-chrome mat-chrome" style=" stroke:none;fill-rule:nonzero;fill:rgb(73.3%,75.3%,77.3%);fill-opacity:1;" d="M 388.050781 782.414062 C 388.015625 782.335938 385.90625 778.007812 382.082031 775.878906 C 378.121094 773.675781 370.367188 773.621094 367.214844 773.703125 L 367.175781 772.09375 C 371.25 771.992188 378.714844 772.167969 382.863281 774.476562 C 387.160156 776.867188 389.410156 781.527344 389.503906 781.722656 Z M 388.050781 782.414062 L 388.777344 782.066406 Z M 388.050781 782.414062 "/>
<path class="mat-chrome mat-chrome" style=" stroke:none;fill-rule:nonzero;fill:rgb(73.3%,75.3%,77.3%);fill-opacity:1;" d="M 377.765625 788.21875 C 377.746094 786.996094 376.976562 784.945312 376.652344 784.195312 C 376.371094 783.734375 373.675781 779.398438 370.355469 777.8125 C 368.296875 776.828125 362.269531 774.613281 350.820312 775.238281 L 350.730469 773.636719 C 359.054688 773.179688 366.457031 774.171875 371.046875 776.363281 C 374.988281 778.242188 377.9375 783.210938 378.0625 783.421875 L 378.105469 783.507812 C 378.15625 783.621094 379.34375 786.367188 379.371094 788.191406 Z M 377.765625 788.21875 "/>
<path class="mat-chrome mat-chrome" style=" stroke:none;fill-rule:nonzero;fill:rgb(73.3%,75.3%,77.3%);fill-opacity:1;" d="M 367.988281 789.371094 L 366.402344 789.101562 C 366.503906 788.515625 365.550781 786.851562 364.597656 785.667969 L 364.53125 785.570312 C 364.496094 785.507812 360.796875 779.324219 355.65625 778.257812 C 350.175781 777.121094 342.28125 776.808594 336.019531 776.664062 L 336.054688 775.058594 C 342.386719 775.207031 350.375 775.519531 355.984375 776.683594 C 361.621094 777.855469 365.476562 784.023438 365.886719 784.703125 C 366.492188 785.464844 368.25 787.835938 367.988281 789.371094 "/>
<path class="mat-chrome mat-chrome" style=" stroke:none;fill-rule:nonzero;fill:rgb(73.3%,75.3%,77.3%);fill-opacity:1;" d="M 354.449219 790.179688 L 352.847656 790.042969 C 352.945312 788.949219 352.058594 787.019531 351.71875 786.378906 C 351.464844 786.007812 348.347656 781.5625 343.167969 779.839844 C 339.40625 778.589844 334.898438 778.53125 330.921875 778.480469 C 328.964844 778.453125 327.113281 778.429688 325.46875 778.273438 L 325.625 776.671875 C 327.199219 776.824219 329.019531 776.847656 330.945312 776.871094 C 335.035156 776.925781 339.675781 776.988281 343.671875 778.316406 C 349.601562 780.285156 352.9375 785.3125 353.078125 785.523438 L 353.113281 785.582031 C 353.265625 785.863281 354.605469 788.390625 354.449219 790.179688 "/>
<path class="mat-chrome mat-chrome" style=" stroke:none;fill-rule:nonzero;fill:rgb(73.3%,75.3%,77.3%);fill-opacity:1;" d="M 339.261719 790.304688 L 337.660156 790.15625 C 337.730469 789.394531 337.230469 787.578125 336.875 786.546875 C 334.511719 782.941406 328.824219 780.875 325.769531 780.417969 C 325.027344 780.308594 324.15625 780.167969 323.226562 780.015625 C 320.128906 779.507812 316.28125 778.875 314.105469 778.929688 L 314.066406 777.324219 C 316.382812 777.265625 320.324219 777.910156 323.484375 778.429688 C 324.410156 778.578125 325.269531 778.722656 326.007812 778.832031 C 329.496094 779.351562 335.644531 781.625 338.28125 785.761719 L 338.332031 785.839844 L 338.363281 785.929688 C 338.46875 786.230469 339.386719 788.914062 339.261719 790.304688 "/>
<path class="mat-chrome mat-chrome" style=" stroke:none;fill-rule:nonzero;fill:rgb(73.3%,75.3%,77.3%);fill-opacity:1;" d="M 244.671875 770.527344 C 238.621094 764.945312 234.757812 758.378906 233.949219 755.5 C 233.761719 754.832031 233.433594 753.949219 233.015625 752.832031 C 231.757812 749.476562 229.660156 743.867188 227.609375 734.066406 C 225.140625 722.261719 221.507812 701.648438 220.3125 694.875 L 219.992188 693.054688 C 219.574219 690.691406 213.902344 663.707031 208.902344 639.902344 C 204.734375 620.0625 200.796875 601.328125 200.410156 599.269531 C 199.570312 594.820312 196.5625 583.015625 194.039062 577.242188 L 195.511719 576.597656 C 198.117188 582.566406 201.113281 594.335938 201.988281 598.96875 C 202.375 601.011719 206.308594 619.742188 210.472656 639.570312 C 215.722656 664.550781 221.152344 690.382812 221.574219 692.773438 L 221.898438 694.59375 C 223.089844 701.363281 226.71875 721.957031 229.179688 733.738281 C 231.207031 743.417969 233.28125 748.957031 234.519531 752.269531 C 234.949219 753.421875 235.292969 754.332031 235.496094 755.0625 C 236.234375 757.683594 240.003906 764.039062 245.761719 769.34375 Z M 244.671875 770.527344 "/>
<path class="mat-chrome mat-chrome" style=" stroke:none;fill-rule:nonzero;fill:rgb(73.3%,75.3%,77.3%);fill-opacity:1;" d="M 230.65625 767.816406 L 230.546875 767.664062 C 229.257812 765.921875 225.847656 761.292969 224.148438 757.304688 C 222.300781 752.960938 220.757812 748.160156 218.636719 740.179688 C 216.429688 731.859375 212.421875 708.386719 212.378906 708.152344 L 193.988281 617.921875 C 193.945312 617.742188 189.453125 597.863281 188.183594 592.199219 C 187.144531 587.550781 185.347656 582.691406 184.277344 579.785156 C 184.035156 579.132812 183.832031 578.578125 183.675781 578.136719 L 185.1875 577.601562 C 185.34375 578.039062 185.546875 578.585938 185.785156 579.230469 C 186.871094 582.171875 188.691406 587.09375 189.753906 591.84375 C 191.019531 597.507812 195.511719 617.386719 195.558594 617.585938 L 213.960938 707.855469 C 214.003906 708.117188 218.003906 731.515625 220.191406 739.765625 C 222.289062 747.667969 223.8125 752.410156 225.628906 756.675781 C 227.25 760.492188 230.582031 765.011719 231.839844 766.710938 L 231.949219 766.863281 Z M 230.65625 767.816406 "/>
<path class="mat-chrome mat-chrome" style=" stroke:none;fill-rule:nonzero;fill:rgb(73.3%,75.3%,77.3%);fill-opacity:1;" d="M 220.363281 765.960938 C 216.984375 762.808594 213.441406 753.929688 212.078125 750.257812 C 210.707031 746.582031 210.230469 745.117188 208.367188 736.113281 C 205.40625 721.835938 201.765625 702.949219 198.246094 684.683594 C 192.730469 656.082031 187.523438 629.066406 184.773438 618.535156 C 184.195312 616.335938 183.285156 612.632812 182.320312 608.710938 C 181 603.359375 179.507812 597.296875 178.617188 594.027344 C 177.484375 589.875 176.089844 585.726562 175.070312 582.695312 C 174.699219 581.597656 174.371094 580.617188 174.105469 579.796875 L 175.636719 579.304688 C 175.898438 580.121094 176.226562 581.09375 176.589844 582.183594 C 177.617188 585.230469 179.019531 589.40625 180.167969 593.605469 C 181.0625 596.894531 182.558594 602.96875 183.878906 608.328125 C 184.84375 612.242188 185.753906 615.9375 186.324219 618.128906 C 189.089844 628.714844 194.304688 655.753906 199.824219 684.378906 C 203.34375 702.640625 206.984375 721.523438 209.941406 735.789062 C 211.785156 744.707031 212.21875 746.03125 213.582031 749.699219 C 214.617188 752.480469 218.242188 761.785156 221.457031 764.785156 Z M 220.363281 765.960938 "/>
<path class="mat-chrome mat-chrome" style=" stroke:none;fill-rule:nonzero;fill:rgb(73.3%,75.3%,77.3%);fill-opacity:1;" d="M 209.40625 762.515625 C 206.914062 759.695312 204.285156 753.597656 201.371094 743.878906 C 199.394531 737.292969 198.480469 733.160156 197.75 727.503906 C 197.039062 722 196.171875 716.433594 195.019531 709.984375 C 194.542969 707.316406 194.035156 704.859375 193.449219 702.015625 C 192.574219 697.789062 191.582031 692.996094 190.402344 686.058594 C 188.785156 676.578125 185.199219 660.363281 182.316406 647.332031 C 181.695312 644.519531 181.105469 641.851562 180.574219 639.429688 C 179.042969 632.453125 177.300781 624.933594 175.761719 618.296875 C 174.296875 611.984375 173.03125 606.53125 172.363281 603.304688 C 171.132812 597.382812 168.742188 590.773438 167.316406 586.824219 L 166.921875 585.730469 L 168.433594 585.191406 L 168.828125 586.277344 C 170.269531 590.269531 172.679688 596.945312 173.933594 602.976562 C 174.601562 606.1875 175.863281 611.628906 177.328125 617.933594 C 178.867188 624.574219 180.613281 632.101562 182.144531 639.085938 C 182.671875 641.503906 183.261719 644.171875 183.886719 646.984375 C 186.773438 660.035156 190.363281 676.269531 191.984375 685.789062 C 193.164062 692.699219 194.152344 697.476562 195.019531 701.691406 C 195.613281 704.542969 196.121094 707.011719 196.601562 709.703125 C 197.757812 716.175781 198.632812 721.765625 199.34375 727.296875 C 200.0625 732.859375 200.960938 736.925781 202.910156 743.417969 C 205.71875 752.777344 208.308594 758.84375 210.609375 761.453125 Z M 209.40625 762.515625 "/>
<path class="mat-chrome mat-chrome" style=" stroke:none;fill-rule:nonzero;fill:rgb(73.3%,75.3%,77.3%);fill-opacity:1;" d="M 200.765625 760.132812 C 198.59375 757.570312 196.359375 751.75 194.871094 747.59375 C 193.550781 743.90625 192.1875 737.773438 190.75 731.28125 L 190.496094 730.140625 C 188.976562 723.3125 188.453125 719.484375 187.660156 713.308594 C 187.015625 708.3125 185.140625 697.085938 184.136719 691.054688 C 183.933594 689.851562 183.765625 688.832031 183.640625 688.078125 C 183.277344 685.890625 182.6875 683.160156 182.0625 680.273438 C 181.375 677.09375 180.597656 673.488281 179.96875 669.898438 C 179.269531 665.910156 176.832031 655.640625 174.683594 646.578125 C 173.160156 640.164062 171.847656 634.628906 171.417969 632.457031 C 170.390625 627.21875 167.910156 616.195312 166.898438 612.054688 C 165.890625 607.921875 163.699219 602.96875 161.902344 599.117188 L 161.808594 598.921875 L 162.125 595.433594 L 158.554688 593.1875 L 159.410156 591.824219 L 163.816406 594.597656 L 163.449219 598.636719 C 165.261719 602.523438 167.4375 607.476562 168.460938 611.671875 C 169.472656 615.828125 171.960938 626.890625 172.996094 632.148438 C 173.417969 634.289062 174.726562 639.8125 176.246094 646.207031 C 178.402344 655.289062 180.84375 665.585938 181.550781 669.621094 C 182.175781 673.179688 182.949219 676.769531 183.632812 679.933594 C 184.261719 682.84375 184.855469 685.589844 185.222656 687.816406 C 185.347656 688.566406 185.519531 689.585938 185.71875 690.789062 C 186.730469 696.832031 188.605469 708.074219 189.253906 713.101562 C 190.042969 719.234375 190.5625 723.03125 192.0625 729.792969 L 192.316406 730.9375 C 193.746094 737.375 195.097656 743.457031 196.382812 747.050781 C 197.832031 751.089844 199.984375 756.730469 201.988281 759.089844 Z M 200.765625 760.132812 "/>
<path class="mat-chrome mat-chrome" style=" stroke:none;fill-rule:nonzero;fill:rgb(73.3%,75.3%,77.3%);fill-opacity:1;" d="M 390.917969 786.617188 L 389.3125 786.546875 C 389.40625 784.34375 388.230469 783.136719 388.21875 783.125 L 389.335938 781.972656 C 389.40625 782.042969 391.046875 783.667969 390.917969 786.617188 "/>
<path class="mat-chrome mat-chrome" style=" stroke:none;fill-rule:nonzero;fill:rgb(73.3%,75.3%,77.3%);fill-opacity:1;" d="M 304.277344 781.957031 C 297.859375 781.957031 291.273438 781.839844 291.175781 781.835938 L 291.203125 780.230469 C 291.351562 780.230469 306.148438 780.496094 312.945312 780.230469 C 320.050781 779.957031 324.960938 779.515625 331.046875 778.617188 L 331.28125 780.207031 C 325.132812 781.117188 320.179688 781.558594 313.007812 781.835938 C 310.710938 781.925781 307.515625 781.957031 304.277344 781.957031 "/>
<path class="mat-chrome mat-chrome" style=" stroke:none;fill-rule:nonzero;fill:rgb(73.3%,75.3%,77.3%);fill-opacity:1;" d="M 236.96875 774.320312 L 235.386719 774.042969 C 235.386719 774.027344 235.640625 772.59375 235.804688 770.9375 C 236.03125 768.691406 238.855469 767.957031 238.976562 767.925781 L 239.367188 769.488281 C 239.347656 769.492188 237.515625 769.992188 237.40625 771.097656 C 237.230469 772.816406 236.976562 774.257812 236.96875 774.320312 "/>
<path class="mat-chrome mat-chrome" style=" stroke:none;fill-rule:nonzero;fill:rgb(73.3%,75.3%,77.3%);fill-opacity:1;" d="M 225.488281 771.933594 L 223.949219 771.46875 C 223.953125 771.453125 224.453125 769.777344 224.699219 768.625 C 225.027344 767.109375 227.164062 766.074219 227.589844 765.882812 L 228.25 767.347656 L 227.917969 766.617188 L 228.25 767.347656 C 227.492188 767.691406 226.382812 768.445312 226.273438 768.960938 C 226.011719 770.175781 225.507812 771.859375 225.488281 771.933594 "/>
<path class="mat-chrome mat-chrome" style=" stroke:none;fill-rule:nonzero;fill:rgb(73.3%,75.3%,77.3%);fill-opacity:1;" d="M 215.515625 769.9375 L 213.90625 769.9375 C 213.90625 769.839844 213.914062 767.597656 214.5625 765.9375 C 215.355469 763.894531 217.476562 763.921875 217.5625 763.925781 L 217.53125 765.535156 L 217.527344 765.535156 C 217.402344 765.535156 216.429688 765.566406 216.058594 766.519531 C 215.523438 767.894531 215.515625 769.917969 215.515625 769.9375 "/>
<path class="mat-chrome mat-chrome" style=" stroke:none;fill-rule:nonzero;fill:rgb(73.3%,75.3%,77.3%);fill-opacity:1;" d="M 205.5 767.464844 L 203.914062 767.203125 C 204.003906 766.65625 204.875 761.851562 207.839844 761.75 L 207.894531 763.355469 C 206.589844 763.402344 205.71875 766.144531 205.5 767.464844 "/>
<path class="mat-chrome mat-chrome" style=" stroke:none;fill-rule:nonzero;fill:rgb(73.3%,75.3%,77.3%);fill-opacity:1;" d="M 193.898438 764.738281 C 193.78125 762.917969 197.105469 759.828125 199.726562 759.324219 L 200.03125 760.902344 C 197.847656 761.320312 195.496094 763.921875 195.5 764.640625 Z M 193.898438 764.738281 "/>
<path class="mat-chrome mat-chrome" style=" stroke:none;fill-rule:nonzero;fill:rgb(73.3%,75.3%,77.3%);fill-opacity:1;" d="M 187.308594 761.175781 L 185.777344 760.683594 C 185.800781 760.613281 186.335938 758.964844 188.363281 757.457031 C 190.414062 755.9375 192.53125 756.015625 192.621094 756.023438 L 192.550781 757.628906 C 192.535156 757.628906 190.890625 757.582031 189.324219 758.746094 C 187.742188 759.921875 187.3125 761.160156 187.308594 761.175781 "/>
<path class="mat-chrome mat-chrome" style=" stroke:none;fill-rule:nonzero;fill:rgb(73.3%,75.3%,77.3%);fill-opacity:1;" d="M 183.355469 757.191406 L 181.921875 756.464844 C 181.972656 756.359375 182.476562 755.40625 183.949219 754.296875 C 185.492188 753.132812 188.105469 753.1875 188.398438 753.195312 L 188.34375 754.800781 C 187.703125 754.777344 185.84375 754.882812 184.917969 755.582031 C 183.75 756.457031 183.359375 757.179688 183.355469 757.191406 "/>
<path class="mat-chrome mat-chrome" style=" stroke:none;fill-rule:nonzero;fill:rgb(73.3%,75.3%,77.3%);fill-opacity:1;" d="M 179.65625 753.796875 L 178.425781 752.765625 C 178.472656 752.707031 179.613281 751.351562 180.695312 750.515625 C 181.839844 749.636719 182.847656 749.207031 184.617188 749.625 L 184.246094 751.1875 C 183.082031 750.910156 182.5625 751.105469 181.679688 751.789062 C 180.734375 752.515625 179.667969 753.785156 179.65625 753.796875 "/>
<path class="mat-chrome mat-chrome" style=" stroke:none;fill-rule:nonzero;fill:rgb(73.3%,75.3%,77.3%);fill-opacity:1;" d="M 176.4375 749.320312 L 175.253906 748.234375 C 175.410156 748.066406 176.792969 746.574219 177.921875 746.007812 C 179.046875 745.445312 179.785156 745.136719 181.824219 745.359375 L 181.648438 746.957031 C 179.980469 746.773438 179.53125 747 178.640625 747.449219 C 177.90625 747.8125 176.804688 748.921875 176.4375 749.320312 "/>
<path class="mat-chrome mat-chrome" style=" stroke:none;fill-rule:nonzero;fill:rgb(73.3%,75.3%,77.3%);fill-opacity:1;" d="M 266.679688 788.023438 C 264.683594 788.023438 262.75 787.960938 260.996094 787.808594 C 259.011719 787.640625 257.179688 787.5 255.40625 787.367188 C 248.144531 786.820312 242.410156 786.386719 234.164062 784.445312 C 225.972656 782.515625 221.957031 780.566406 215.875 777.617188 C 214.308594 776.855469 212.53125 775.996094 210.523438 775.054688 C 200.789062 770.507812 199.074219 767.304688 198.910156 766.957031 L 200.359375 766.261719 C 200.375 766.292969 201.996094 769.296875 211.203125 773.601562 C 213.222656 774.542969 215.003906 775.40625 216.574219 776.167969 C 222.773438 779.175781 226.515625 780.992188 234.53125 782.878906 C 242.65625 784.792969 248.335938 785.222656 255.527344 785.765625 C 257.304688 785.898438 259.140625 786.039062 261.132812 786.207031 C 270.9375 787.046875 286.460938 785.074219 286.617188 785.054688 L 286.824219 786.648438 C 286.691406 786.664062 276.015625 788.023438 266.679688 788.023438 "/>
<path class="mat-chrome mat-chrome" style=" stroke:none;fill-rule:nonzero;fill:rgb(73.3%,75.3%,77.3%);fill-opacity:1;" d="M 258.398438 787.597656 C 247.015625 786.421875 230.289062 779.695312 225.433594 777.660156 C 216.378906 773.867188 213.742188 770.851562 213.636719 770.722656 L 214.859375 769.683594 L 214.246094 770.203125 L 214.855469 769.679688 C 214.878906 769.707031 217.4375 772.566406 226.054688 776.175781 C 235.953125 780.324219 249.695312 785.082031 258.5625 785.996094 Z M 258.398438 787.597656 "/>
<path class="mat-chrome mat-chrome" style=" stroke:none;fill-rule:nonzero;fill:rgb(73.3%,75.3%,77.3%);fill-opacity:1;" d="M 278.371094 785.898438 C 270.144531 785.898438 253.847656 784.421875 244.101562 781.929688 C 232.890625 779.066406 227.371094 776.289062 222.09375 772.734375 L 222.992188 771.402344 C 228.125 774.859375 233.511719 777.566406 244.5 780.375 C 255.933594 783.292969 274.695312 784.554688 280.691406 784.238281 L 280.777344 785.84375 C 280.085938 785.878906 279.277344 785.898438 278.371094 785.898438 "/>
<path class="mat-chrome mat-chrome" style=" stroke:none;fill-rule:nonzero;fill:rgb(73.3%,75.3%,77.3%);fill-opacity:1;" d="M 270.089844 783.53125 C 265.039062 783.53125 259.167969 782.75 251.46875 781.066406 C 243.589844 779.347656 240.863281 778.175781 235.914062 776.046875 L 234.554688 775.464844 L 235.183594 773.984375 L 236.546875 774.570312 C 241.566406 776.726562 244.082031 777.808594 251.808594 779.496094 C 260.5625 781.40625 266.882812 782.140625 272.308594 781.871094 L 272.386719 783.472656 C 271.636719 783.511719 270.875 783.53125 270.089844 783.53125 "/>
<path class="mat-chrome mat-chrome" style=" stroke:none;fill-rule:nonzero;fill:rgb(73.3%,75.3%,77.3%);fill-opacity:1;" d="M 246.777344 786.261719 C 237.691406 784.726562 225.851562 780.152344 218.476562 776.703125 C 210.460938 772.957031 208.609375 769.679688 208.53125 769.542969 L 209.945312 768.773438 L 209.238281 769.15625 L 209.941406 768.765625 C 209.957031 768.796875 211.714844 771.769531 219.15625 775.25 C 226.441406 778.65625 238.117188 783.167969 247.046875 784.679688 Z M 246.777344 786.261719 "/>
<path class="mat-chrome mat-chrome" style=" stroke:none;fill-rule:nonzero;fill:rgb(73.3%,75.3%,77.3%);fill-opacity:1;" d="M 292.488281 1022.082031 L 292.492188 1022.09375 C 292.488281 1022.089844 292.488281 1022.085938 292.488281 1022.082031 M 292.507812 1022.15625 C 292.792969 1023.390625 295.285156 1024.101562 299.347656 1024.101562 C 302.542969 1024.101562 304.097656 1024.011719 304.894531 1023.785156 C 305.402344 1023.640625 305.433594 1023.542969 305.660156 1022.929688 C 305.730469 1022.734375 305.808594 1022.527344 305.910156 1022.296875 C 306.109375 1021.84375 306.015625 1021.648438 305.984375 1021.585938 C 305.679688 1020.957031 303.976562 1020.507812 303.25 1020.316406 C 302.652344 1020.160156 301.65625 1019.898438 301.746094 1019.039062 C 301.804688 1018.484375 302.253906 1018.246094 302.835938 1018.136719 L 302.796875 1017.394531 L 300.625 1016.667969 L 302.878906 1015.703125 L 302.765625 824.363281 C 302.707031 823.765625 301.859375 815.402344 299.023438 811.203125 C 295.699219 806.277344 293.023438 803.738281 290.347656 802.976562 C 287.21875 802.082031 239.007812 791.847656 238.519531 791.746094 C 238.441406 791.726562 231.167969 790.148438 227.113281 791.710938 C 222.90625 793.328125 217.960938 798.835938 216.152344 802.765625 C 214.253906 806.902344 159.71875 964.167969 159.167969 965.753906 L 159.152344 965.796875 L 158.265625 967.964844 L 159.179688 969.796875 L 158.054688 969.9375 C 155.542969 970.25 154.882812 970.820312 154.882812 971.078125 C 154.882812 971.589844 155.277344 972.660156 156.78125 973.035156 L 157.105469 973.117188 C 158.792969 973.546875 160.390625 973.953125 164.386719 973.03125 C 165.316406 972.816406 165.988281 972.679688 166.484375 972.582031 C 166.691406 972.539062 166.894531 972.496094 167.054688 972.460938 C 167.039062 972.246094 167.03125 971.960938 167.078125 971.605469 C 167.125 971.21875 167.03125 970.894531 166.785156 970.621094 C 166.367188 970.148438 165.644531 969.941406 165.367188 969.941406 L 164.949219 969.941406 L 164.703125 969.601562 C 164.394531 969.160156 164.375 969.132812 166.820312 961.847656 C 168.214844 957.683594 170.296875 951.597656 173.003906 943.757812 C 177.558594 930.5625 183.949219 912.214844 192 889.230469 C 205.550781 850.550781 219.332031 811.464844 219.785156 810.175781 C 219.984375 809.449219 222.542969 800.285156 227.785156 798.261719 C 232.757812 796.339844 237.261719 797.980469 237.914062 798.238281 L 286.863281 808.9375 C 287.3125 809.007812 290.875 809.710938 293.324219 814.355469 C 296.359375 819.511719 296.167969 826.453125 296.160156 826.746094 L 295.703125 1015.464844 L 296.433594 1016.851562 L 295.507812 1017.449219 L 295.566406 1018.371094 C 295.625 1018.40625 295.695312 1018.453125 295.785156 1018.503906 C 296.359375 1018.84375 296.332031 1019.339844 296.3125 1019.484375 C 296.203125 1020.179688 295.535156 1020.335938 294.613281 1020.554688 C 294.246094 1020.636719 293.566406 1020.796875 293.402344 1020.921875 C 292.898438 1021.425781 292.5625 1021.953125 292.507812 1022.15625 M 299.347656 1025.707031 C 294.179688 1025.707031 291.429688 1024.660156 290.9375 1022.511719 L 290.929688 1022.472656 C 290.683594 1021.496094 291.792969 1020.257812 292.28125 1019.769531 C 292.636719 1019.414062 293.203125 1019.238281 294.007812 1019.042969 C 293.960938 1018.921875 293.945312 1018.78125 293.972656 1018.628906 L 293.839844 1016.613281 L 294.328125 1016.300781 L 294.097656 1015.859375 L 294.097656 1015.660156 L 294.554688 826.71875 C 294.558594 826.625 294.734375 819.90625 291.929688 815.152344 L 291.910156 815.121094 C 289.757812 811.023438 286.738281 810.542969 286.609375 810.523438 L 286.546875 810.515625 L 237.429688 799.777344 L 237.359375 799.75 C 237.320312 799.730469 233.003906 797.96875 228.363281 799.761719 C 223.777344 801.53125 221.355469 810.527344 221.332031 810.617188 L 221.3125 810.679688 C 203.109375 862.289062 169.132812 959.027344 166.335938 968.507812 C 166.925781 968.699219 167.546875 969.050781 167.988281 969.558594 C 168.542969 970.179688 168.777344 970.957031 168.671875 971.804688 C 168.628906 972.144531 168.65625 972.351562 168.679688 972.535156 C 168.839844 973.738281 168.074219 973.894531 166.804688 974.152344 C 166.320312 974.253906 165.65625 974.386719 164.746094 974.597656 C 160.371094 975.609375 158.507812 975.132812 156.707031 974.675781 L 156.390625 974.59375 C 154.25 974.058594 153.273438 972.394531 153.273438 971.078125 C 153.273438 969.488281 155.027344 968.832031 156.742188 968.511719 L 156.5 968.03125 L 157.65625 965.207031 C 160.011719 958.425781 212.761719 806.296875 214.695312 802.097656 C 216.671875 797.792969 221.902344 791.992188 226.539062 790.210938 C 231.042969 788.476562 238.542969 790.105469 238.859375 790.175781 C 240.84375 790.597656 287.605469 800.519531 290.789062 801.429688 C 293.894531 802.316406 296.757812 804.972656 300.355469 810.304688 C 303.515625 814.984375 304.335938 823.878906 304.367188 824.253906 L 304.371094 824.324219 L 304.484375 1016.761719 L 304.371094 1016.808594 L 304.492188 1018.996094 C 305.78125 1019.382812 306.953125 1019.902344 307.433594 1020.886719 C 307.726562 1021.5 307.710938 1022.1875 307.382812 1022.941406 C 307.296875 1023.136719 307.230469 1023.316406 307.171875 1023.480469 C 306.445312 1025.457031 305.566406 1025.707031 299.347656 1025.707031 "/>
<path class="mat-chrome mat-chrome" style=" stroke:none;fill-rule:nonzero;fill:rgb(73.3%,75.3%,77.3%);fill-opacity:1;" d="M 294.300781 940.082031 C 293.503906 940.050781 292.71875 939.546875 292.292969 939.058594 C 291.703125 938.386719 291.804688 937.253906 292.164062 936.433594 C 292.628906 935.363281 294.066406 935.144531 294.226562 935.125 L 294.4375 936.71875 L 294.332031 935.921875 L 294.441406 936.71875 C 294.097656 936.765625 293.691406 936.949219 293.636719 937.078125 C 293.421875 937.566406 293.472656 937.941406 293.515625 938.015625 C 293.691406 938.21875 294.097656 938.464844 294.363281 938.476562 Z M 294.300781 940.082031 "/>
<path class="mat-chrome mat-chrome" style=" stroke:none;fill-rule:nonzero;fill:rgb(73.3%,75.3%,77.3%);fill-opacity:1;" d="M 305.019531 937.808594 Z M 304.214844 939.789062 L 303.902344 938.210938 C 304.449219 938.105469 304.875 937.921875 305 937.824219 C 305.027344 937.730469 304.988281 937.542969 304.84375 937.328125 C 304.707031 937.121094 304.382812 937.003906 303.667969 936.804688 L 304.105469 935.253906 C 304.886719 935.476562 305.691406 935.703125 306.183594 936.4375 C 306.679688 937.183594 306.75 938.011719 306.378906 938.65625 C 306 939.308594 304.996094 939.632812 304.214844 939.789062 "/>
<path class="mat-chrome mat-chrome" style=" stroke:none;fill-rule:nonzero;fill:rgb(73.3%,75.3%,77.3%);fill-opacity:1;" d="M 305.167969 907.59375 L 303.5625 907.53125 L 307.898438 795.671875 L 309.5 795.734375 Z M 305.167969 907.59375 "/>
<path class="mat-chrome mat-chrome" style=" stroke:none;fill-rule:nonzero;fill:rgb(73.3%,75.3%,77.3%);fill-opacity:1;" d="M 301.519531 812.558594 L 299.914062 812.488281 L 300.621094 796.808594 L 302.226562 796.878906 Z M 301.519531 812.558594 "/>
<path class="mat-chrome mat-chrome" style=" stroke:none;fill-rule:nonzero;fill:rgb(73.3%,75.3%,77.3%);fill-opacity:1;" d="M 281.925781 801.007812 L 281.6875 799.417969 L 290.050781 798.160156 L 290.289062 799.746094 Z M 281.925781 801.007812 "/>
<path class="mat-chrome mat-chrome" style=" stroke:none;fill-rule:nonzero;fill:rgb(73.3%,75.3%,77.3%);fill-opacity:1;" d="M 294.207031 804.917969 L 293.929688 803.335938 C 293.878906 803.34375 293.859375 803.351562 293.859375 803.351562 C 293.867188 803.347656 294.695312 802.992188 295.136719 800.4375 C 295.34375 799.214844 295.378906 798.171875 295.40625 797.253906 C 295.457031 795.691406 295.5 794.347656 296.4375 793.152344 C 297.472656 791.832031 299.40625 789.375 302.90625 788.976562 L 303.089844 790.570312 C 300.472656 790.871094 298.9375 792.574219 297.699219 794.148438 C 297.089844 794.925781 297.058594 795.871094 297.011719 797.304688 C 296.980469 798.277344 296.945312 799.378906 296.71875 800.707031 C 296.085938 804.40625 294.515625 804.863281 294.207031 804.917969 "/>
<path class="mat-chrome mat-chrome" style=" stroke:none;fill-rule:nonzero;fill:rgb(73.3%,75.3%,77.3%);fill-opacity:1;" d="M 289.363281 802.347656 L 288.464844 801.015625 C 288.46875 801.011719 289.25 800.453125 289.371094 799.484375 C 289.425781 799.050781 289.371094 798.746094 289.300781 798.359375 C 289.1875 797.722656 289.042969 796.933594 289.390625 795.515625 C 289.945312 793.226562 290.527344 791.890625 291.890625 789.792969 C 293.429688 787.421875 295.601562 786.992188 295.691406 786.976562 L 295.992188 788.554688 C 295.925781 788.570312 294.386719 788.898438 293.238281 790.667969 C 291.976562 792.613281 291.464844 793.785156 290.949219 795.894531 C 290.683594 796.980469 290.78125 797.511719 290.882812 798.074219 C 290.960938 798.511719 291.050781 799.007812 290.96875 799.683594 C 290.753906 801.390625 289.421875 802.308594 289.363281 802.347656 "/>
<path class="mat-chrome mat-chrome" style=" stroke:none;fill-rule:nonzero;fill:rgb(73.3%,75.3%,77.3%);fill-opacity:1;" d="M 263.605469 796.519531 C 262.957031 796.519531 262.542969 796.507812 262.492188 796.507812 L 262.542969 794.902344 C 262.578125 794.902344 266.164062 795.003906 269.246094 794.566406 C 272.382812 794.117188 291.195312 790.503906 291.386719 790.464844 L 291.6875 792.042969 C 290.914062 792.195312 272.648438 795.703125 269.472656 796.15625 C 267.296875 796.46875 264.949219 796.519531 263.605469 796.519531 "/>
<path class="mat-chrome mat-chrome" style=" stroke:none;fill-rule:nonzero;fill:rgb(73.3%,75.3%,77.3%);fill-opacity:1;" d="M 296.695312 798.546875 L 296.414062 796.964844 L 334.441406 790.121094 L 334.726562 791.703125 Z M 296.695312 798.546875 "/>
<path class="mat-chrome mat-chrome" style=" stroke:none;fill-rule:nonzero;fill:rgb(73.3%,75.3%,77.3%);fill-opacity:1;" d="M 374.722656 793.066406 C 373.574219 793.066406 372.507812 792.917969 372.441406 792.90625 L 372.410156 792.902344 L 360.402344 790.683594 L 360.695312 789.105469 L 372.683594 791.320312 C 373.324219 791.40625 375.136719 791.578125 376.121094 791.332031 C 378.511719 790.734375 379.929688 789.632812 380.453125 787.960938 L 381.988281 788.445312 C 381.285156 790.664062 379.445312 792.15625 376.511719 792.890625 C 375.984375 793.023438 375.34375 793.066406 374.722656 793.066406 "/>
<path class="mat-chrome mat-chrome" style=" stroke:none;fill-rule:nonzero;fill:rgb(73.3%,75.3%,77.3%);fill-opacity:1;" d="M 465.15625 976.15625 C 464.785156 976.15625 464.417969 976.144531 464.050781 976.128906 C 460.355469 975.945312 459.5625 974.265625 459.285156 973.019531 C 459.214844 972.695312 459.003906 971.753906 461.789062 970.382812 C 456.902344 957.597656 402.136719 814.332031 400.8125 810.351562 C 399.429688 806.203125 396.488281 801.5 394.300781 799 C 392.007812 796.378906 388.027344 794.160156 385.65625 793.605469 C 383.175781 793.027344 378.542969 792.601562 378.496094 792.597656 L 378.640625 791 C 378.835938 791.015625 383.429688 791.4375 386.019531 792.042969 C 388.695312 792.664062 392.972656 795.042969 395.507812 797.9375 C 397.734375 800.480469 400.820312 805.292969 402.335938 809.84375 C 403.683594 813.886719 462.960938 968.941406 463.558594 970.507812 L 463.832031 971.21875 L 463.132812 971.527344 C 462.183594 971.949219 461.191406 972.542969 460.898438 972.855469 C 461.054688 973.449219 461.527344 974.390625 464.128906 974.523438 C 467.339844 974.683594 470.992188 974.03125 472.445312 973.039062 C 472.984375 972.667969 473.285156 972.230469 473.246094 971.871094 C 473.21875 971.601562 472.980469 971.351562 472.59375 971.195312 C 471.378906 970.695312 469.867188 970.902344 469.851562 970.902344 L 469.242188 970.996094 L 468.546875 969.375 L 469.414062 968.332031 L 406.925781 806.039062 C 406.902344 805.980469 403.355469 797.6875 399.027344 793.578125 C 395.125 789.875 393.6875 789.21875 391.511719 788.230469 C 391.230469 788.101562 390.9375 787.96875 390.628906 787.820312 L 391.308594 786.367188 C 391.617188 786.507812 391.902344 786.640625 392.179688 786.765625 C 394.417969 787.789062 396.035156 788.523438 400.132812 792.414062 C 404.707031 796.753906 408.265625 805.085938 408.414062 805.4375 L 471.253906 968.636719 L 470.738281 969.253906 C 471.433594 969.261719 472.347656 969.355469 473.203125 969.707031 C 474.15625 970.097656 474.753906 970.828125 474.84375 971.703125 C 474.949219 972.675781 474.402344 973.644531 473.351562 974.363281 C 471.769531 975.445312 468.449219 976.15625 465.15625 976.15625 "/>
<path class="mat-chrome mat-chrome" style=" stroke:none;fill-rule:nonzero;fill:rgb(73.3%,75.3%,77.3%);fill-opacity:1;" d="M 375.460938 784.457031 L 346.640625 780.207031 L 346.875 778.617188 L 375.691406 782.867188 Z M 375.460938 784.457031 "/>
<path class="mat-chrome mat-chrome" style=" stroke:none;fill-rule:nonzero;fill:rgb(73.3%,75.3%,77.3%);fill-opacity:1;" d="M 382.300781 783.054688 C 382.179688 781.53125 381.640625 778.839844 380.71875 778.097656 C 379.605469 777.203125 376.878906 776.757812 375.921875 776.660156 L 376.085938 775.0625 C 376.484375 775.101562 380.046875 775.496094 381.722656 776.847656 C 383.480469 778.261719 383.863281 782.453125 383.902344 782.925781 Z M 382.300781 783.054688 "/>
<path class="mat-chrome mat-chrome" style=" stroke:none;fill-rule:nonzero;fill:rgb(73.3%,75.3%,77.3%);fill-opacity:1;" d="M 378.140625 783.226562 L 376.605469 782.753906 C 376.742188 782.304688 377.09375 780.539062 376.316406 780.140625 C 374.863281 779.386719 373.300781 778.894531 373.285156 778.890625 L 373.761719 777.355469 C 373.832031 777.375 375.472656 777.890625 377.058594 778.710938 C 378.742188 779.585938 378.53125 781.960938 378.140625 783.226562 "/>
<path class="mat-chrome mat-chrome" style=" stroke:none;fill-rule:nonzero;fill:rgb(73.3%,75.3%,77.3%);fill-opacity:1;" d="M 370.582031 782.074219 C 370.167969 782.074219 369.769531 782.027344 369.425781 781.917969 C 368.0625 781.472656 368.125 780.460938 368.148438 780.027344 C 368.15625 779.957031 368.164062 779.851562 368.15625 779.800781 C 368.144531 779.792969 368.125 779.777344 368.097656 779.761719 C 367.730469 779.566406 366.890625 779.714844 366.28125 779.824219 C 365.4375 779.972656 364.710938 780.097656 364.183594 779.691406 C 363.984375 779.539062 363.835938 779.355469 363.738281 779.15625 L 359.90625 780.011719 L 359.554688 778.441406 L 367.886719 776.582031 L 365.757812 778.28125 C 365.84375 778.265625 365.925781 778.253906 366 778.242188 C 366.890625 778.082031 368 777.886719 368.859375 778.347656 C 369.832031 778.871094 369.78125 779.71875 369.753906 780.125 C 369.75 780.183594 369.746094 780.261719 369.746094 780.316406 C 369.777344 780.332031 369.832031 780.359375 369.921875 780.386719 C 370.789062 780.667969 372.734375 780.179688 373.761719 779.800781 L 374.3125 781.308594 C 374.054688 781.40625 372.179688 782.074219 370.582031 782.074219 "/>
<path class="mat-chrome mat-chrome" style=" stroke:none;fill-rule:nonzero;fill:rgb(73.3%,75.3%,77.3%);fill-opacity:1;" d="M 258.238281 791.816406 C 253.199219 791.816406 248.015625 791.453125 245.96875 790.886719 C 244.640625 790.519531 243.703125 789.652344 243.339844 788.449219 C 243.03125 787.429688 243.179688 786.261719 243.695312 785.667969 L 244.910156 786.71875 C 244.820312 786.84375 244.683594 787.4375 244.90625 788.070312 C 245.128906 788.699219 245.632812 789.125 246.398438 789.335938 C 248.867188 790.019531 256.683594 790.394531 262.476562 790.113281 C 268.210938 789.832031 292.8125 787.570312 293.058594 787.546875 L 293.207031 789.148438 C 292.960938 789.167969 268.324219 791.433594 262.558594 791.714844 C 261.1875 791.785156 259.71875 791.816406 258.238281 791.816406 "/>
<path class="mat-chrome mat-chrome" style=" stroke:none;fill-rule:nonzero;fill:rgb(73.3%,75.3%,77.3%);fill-opacity:1;" d="M 253.824219 792.5 Z M 256.359375 794.738281 C 255.675781 794.738281 253.390625 794.382812 252.542969 793.378906 C 252.417969 793.472656 252.285156 793.578125 252.183594 793.671875 L 251.09375 792.488281 C 252.355469 791.332031 252.964844 791.554688 253.167969 791.628906 C 253.496094 791.75 253.726562 792.027344 253.804688 792.386719 C 254.097656 792.667969 255.4375 793.132812 256.359375 793.132812 C 257.050781 793.132812 257.78125 792.691406 258.289062 792.230469 C 258.207031 792.113281 258.066406 791.960938 257.960938 791.871094 L 259 790.644531 C 259.214844 790.828125 259.921875 791.484375 259.957031 792.261719 C 259.96875 792.621094 259.835938 792.964844 259.578125 793.222656 C 259.222656 793.578125 257.9375 794.738281 256.359375 794.738281 "/>
<path class="mat-chrome mat-chrome" style=" stroke:none;fill-rule:nonzero;fill:rgb(73.3%,75.3%,77.3%);fill-opacity:1;" d="M 244.386719 791.953125 L 243.578125 790.558594 L 245.351562 789.535156 L 246.15625 790.925781 Z M 244.386719 791.953125 "/>
<path style=" stroke:none;fill-rule:evenodd;fill:rgb(92.941284%,21.568298%,14.117432%);fill-opacity:1;" d="M 125.144531 99.621094 C 125.144531 85.476562 113.683594 74.015625 99.78125 74.015625 C 85.636719 74.015625 74.171875 85.476562 74.171875 99.621094 C 74.171875 113.765625 85.636719 125.230469 99.78125 125.230469 C 113.683594 125.230469 125.144531 113.765625 125.144531 99.621094 M 113.925781 113.035156 C 113.925781 113.035156 108.074219 111.085938 99.78125 111.085938 C 91.246094 111.085938 85.390625 113.035156 85.390625 113.035156 L 85.390625 86.453125 L 85.878906 86.453125 C 85.878906 86.453125 88.078125 109.867188 99.78125 109.867188 C 111.242188 109.867188 113.441406 86.453125 113.441406 86.453125 L 113.925781 86.453125 Z M 113.925781 113.035156 "/>
<path style="fill:none;stroke-width:3;stroke-linecap:butt;stroke-linejoin:miter;stroke:rgb(0%,57.647705%,27.058411%);stroke-opacity:1;stroke-miterlimit:10;" d="M -0.00009375 0.000625 C -13.433688 0.000625 -24.363375 10.930313 -24.363375 24.363906 C -24.363375 37.7975 -13.433688 48.727188 -0.00009375 48.727188 C 13.4335 48.727188 24.363187 37.7975 24.363187 24.363906 C 24.363187 10.930313 13.4335 0.000625 -0.00009375 0.000625 Z M -0.00009375 0.000625 " transform="matrix(1,0,0,-1,1329.9415,122.985)"/>












<path style="fill:none;stroke-width:3;stroke-linecap:butt;stroke-linejoin:miter;stroke:rgb(0%,0%,0%);stroke-opacity:1;stroke-miterlimit:10;" d="M 0.00178125 0.00111875 L 0.00178125 -52.678569 " transform="matrix(1,0,0,-1,138.549,72.5519)"/>
<path class="mat-chrome mat-chrome" style=" stroke:none;fill-rule:nonzero;fill:rgb(73.3%,75.3%,77.3%);fill-opacity:1;" d="M 1196.027344 73.257812 C 1182.019531 73.257812 1170.664062 84.613281 1170.664062 98.621094 C 1170.664062 112.628906 1182.019531 123.984375 1196.027344 123.984375 Z M 1196.027344 73.257812 "/>
<path class="mat-chrome mat-chrome" style=" stroke:none;fill-rule:nonzero;fill:rgb(73.3%,75.3%,77.3%);fill-opacity:1;" d="M 1196.027344 123.984375 C 1210.035156 123.984375 1221.390625 112.628906 1221.390625 98.621094 C 1221.390625 84.613281 1210.035156 73.257812 1196.027344 73.257812 Z M 1196.027344 123.984375 "/>
<path style="fill:none;stroke-width:3;stroke-linecap:butt;stroke-linejoin:miter;stroke:rgb(94.902039%,56.863403%,73.725891%);stroke-opacity:1;stroke-miterlimit:10;" d="M -0.0011 0.000625 C -13.434694 0.000625 -24.364381 10.930313 -24.364381 24.363906 C -24.364381 37.7975 -13.434694 48.727188 -0.0011 48.727188 C 13.432494 48.727188 24.362181 37.7975 24.362181 24.363906 C 24.362181 10.930313 13.432494 0.000625 -0.0011 0.000625 Z M -0.0011 0.000625 " transform="matrix(1,0,0,-1,1397.2511,122.985)"/>
<path style="fill:none;stroke-width:3;stroke-linecap:butt;stroke-linejoin:miter;stroke:rgb(94.902039%,56.863403%,73.725891%);stroke-opacity:1;stroke-miterlimit:10;" d="M -0.0011 0.000625 C -13.434694 0.000625 -24.364381 10.930313 -24.364381 24.363906 C -24.364381 37.7975 -13.434694 48.727188 -0.0011 48.727188 C 13.432494 48.727188 24.362181 37.7975 24.362181 24.363906 C 24.362181 10.930313 13.432494 0.000625 -0.0011 0.000625 Z M -0.0011 0.000625 " transform="matrix(1,0,0,-1,1397.2511,122.985)"/>
<path style="fill:none;stroke-width:3;stroke-linecap:butt;stroke-linejoin:miter;stroke:rgb(14.509583%,66.275024%,87.843323%);stroke-opacity:1;stroke-miterlimit:10;" d="M -0.000125 0.000625 C -13.433719 0.000625 -24.363406 10.930313 -24.363406 24.363906 C -24.363406 37.7975 -13.433719 48.727188 -0.000125 48.727188 C 13.433469 48.727188 24.363156 37.7975 24.363156 24.363906 C 24.363156 10.930313 13.433469 0.000625 -0.000125 0.000625 Z M -0.000125 0.000625 " transform="matrix(1,0,0,-1,1263.4845,122.985)"/>
</g>
<use xlink:href="#surface5" transform="matrix(1,0,0,1,51,49)" mask="url(#mask0)"/>
<use xlink:href="#surface8" transform="matrix(1,0,0,1,1380,81)" mask="url(#mask1)"/>
<use xlink:href="#surface11" transform="matrix(1,0,0,1,1312,81)" mask="url(#mask2)"/>
<use xlink:href="#surface14" transform="matrix(1,0,0,1,1246,81)" mask="url(#mask3)"/>
<use xlink:href="#surface17" transform="matrix(1,0,0,1,1178,81)" mask="url(#mask4)"/>
<use xlink:href="#surface20" transform="matrix(1,0,0,1,1031,168)" mask="url(#mask5)"/>
</svg>
